<svg xmlns="http://www.w3.org/2000/svg" viewBox="0 0 80.01 44.49"><defs><style>.cls-1{fill:#00349a;}.cls-2{fill:#fe0032;}</style></defs><title>Asset 24</title><g id="Layer_2" data-name="Layer 2"><g id="Layer_1-2" data-name="Layer 1"><path class="cls-1" d="M65.3,25.6,42.31,39l3.12,5.45H35.52L40,36.69l3.32-5.78,6.82-11.86h0L58.2,5C73.1,3.36,79.8.1,80,0Z"/><path class="cls-2" d="M56.81,5.17,50.12,16.81,43.87,5.94C48.7,5.83,53,5.55,56.81,5.17Z"/><path class="cls-1" d="M42.68,29.79l6.81-11.88L42.61,6,39.84,6,37.43,6c-3.08,0-6-.16-8.63-.33l4.42,7.7L34.75,16l-3.27,5.86-1.57-2.73L21.81,5C7.52,3.38.72.23.05,0H0L20.47,35.63l5.09,8.86h8.69l5.11-8.92-5-8.71L37.61,21Z"/><polygon class="cls-2" points="64.53 26.93 59.6 35.52 54.45 44.49 46.28 44.49 46.22 44.34 43.34 39.31 64.53 26.93"/></g></g></svg>