<svg xmlns="http://www.w3.org/2000/svg" viewBox="0 0 31.24 25.1"><defs><style>.cls-1{fill:#6d6d6d;}</style></defs><title>Asset 18</title><g id="Layer_2" data-name="Layer 2"><g id="Layer_1-2" data-name="Layer 1"><path class="cls-1" d="M15.24,7.7A18.59,18.59,0,0,1,2.05,1.2s-2.72,5,2,8.42a9.32,9.32,0,0,1-2.79-.8,6,6,0,0,0,5,6.33,5,5,0,0,1-2.83,0A6,6,0,0,0,9.38,19.6,13.64,13.64,0,0,1,0,22.28s8,5.84,18.49.71S28,6.19,28,6.19A9.64,9.64,0,0,0,31.24,3s-2.63,1.11-3.56.94c0,0,2.27-1.47,2.71-3.48A10.63,10.63,0,0,1,26.25,2,6.67,6.67,0,0,0,18.54.75,6.23,6.23,0,0,0,15.24,7.7Z"/></g></g></svg>