<svg xmlns="http://www.w3.org/2000/svg" viewBox="0 0 27.41 27.41"><defs><style>.cls-1{fill:#6d6d6d;}</style></defs><title>Asset 17</title><g id="Layer_2" data-name="Layer 2"><g id="Layer_1-2" data-name="Layer 1"><path class="cls-1" d="M21,0H6.39A6.39,6.39,0,0,0,0,6.39V21a6.39,6.39,0,0,0,6.39,6.39H21A6.39,6.39,0,0,0,27.41,21V6.39A6.39,6.39,0,0,0,21,0Zm2.77,18.07a5.72,5.72,0,0,1-5.72,5.72H9.34a5.73,5.73,0,0,1-5.73-5.72V9.34A5.74,5.74,0,0,1,9.34,3.61h8.73a5.73,5.73,0,0,1,5.72,5.73Z"/><path class="cls-1" d="M13.7,10.34a3.37,3.37,0,1,0,3.37,3.36A3.37,3.37,0,0,0,13.7,10.34Z"/><path class="cls-1" d="M18.07,5.44H9.34a3.91,3.91,0,0,0-3.9,3.9v8.73A3.91,3.91,0,0,0,9.34,22h8.73a3.91,3.91,0,0,0,3.9-3.9V9.34A3.91,3.91,0,0,0,18.07,5.44ZM13.7,18.89a5.19,5.19,0,1,1,5.19-5.19A5.19,5.19,0,0,1,13.7,18.89Zm5.38-9.34a1.22,1.22,0,1,1,0-2.43,1.22,1.22,0,0,1,0,2.43Z"/></g></g></svg>