<svg xmlns="http://www.w3.org/2000/svg" viewBox="0 0 174.19 57.51"><defs><style>.cls-1{fill:#987745;}.cls-2{fill:#b18c4b;}</style></defs><title>Asset 25</title><g id="Layer_2" data-name="Layer 2"><g id="Layer_1-2" data-name="Layer 1"><path class="cls-1" d="M39.19,18.58c.73-4.45-.44-6.87-.44-6.87-2.88,2.43-2.9,6.83-2.9,6.83-.35,9.08-1.62,20-1.62,20l.64-.53S38.46,23,39.19,18.58Z"/><path class="cls-1" d="M30.21,4.56c-1.88,3.89-.67,9.6-.67,9.6A218.67,218.67,0,0,1,32.39,40l1-.8c.3-4.4,1.29-19.68,1-25A14.16,14.16,0,0,0,30.21,4.56Z"/><path class="cls-1" d="M0,15.93c1,7.93,6,11,6,11A122.3,122.3,0,0,1,26.17,45.58l.07-.09a14.23,14.23,0,0,1,1.38-1.57C23.07,36.79,12.45,22.3,8.91,19.61A20.91,20.91,0,0,0,0,15.93Z"/><path class="cls-1" d="M19.11,0c-2.14,7.63.25,12.49.25,12.49,6.06,13.79,11.06,29,11.06,29l1.09-.85C31,36.4,28.29,15.76,26.4,10.07A22.37,22.37,0,0,0,19.11,0Z"/><path class="cls-1" d="M16,12.32A19.35,19.35,0,0,0,6.73,4.86C6,12.7,10.45,17,10.45,17a195.72,195.72,0,0,1,18,26.16l1.08-.93C27.33,36.18,19.4,17.81,16,12.32Z"/><path class="cls-2" d="M26.17,45.58a65.33,65.33,0,0,1,8.42,11.93s4.68-3.69,7.62-13.09a76.71,76.71,0,0,0,2.59-11.8c.39-2.72.59-5,.69-6.26a1.22,1.22,0,0,1,.35-.39,2,2,0,0,0,.79-1c.32-.7,1.14-.78,1.82-1.25s2.06-1.41,1.73-1.46c0,0-2.22.4-2.91.51a3.24,3.24,0,0,1-1.63-.22A2.92,2.92,0,0,0,43,23.2a1.85,1.85,0,0,0-.25.37c-.36-.05-2-.29-2.94-.5,0-.2,0-.36-.3-.44a.4.4,0,0,0-.51.3.36.36,0,0,0,.31.5.36.36,0,0,0,.46-.21c.74.19,2.28.57,2.84.64,0,.07-.05.14-.08.22-.45,0-2.13,0-3.21-.15,0-.23-.12-.37-.43-.36a.4.4,0,0,0-.39.44c0,.14,0,.42.45.38a.38.38,0,0,0,.37-.31c.77.09,2.47.28,3.12.32l0,.19c-.47.08-1.88.31-2.6.37a.35.35,0,0,0-.46-.33.39.39,0,0,0-.35.47c0,.13.07.41.47.33s.35-.29.35-.37c.6,0,1.95-.09,2.55-.19a2.06,2.06,0,0,0,0,.6,1.16,1.16,0,0,1,.08.9,27.61,27.61,0,0,1-3.25,6.87A22.23,22.23,0,0,1,34.87,38l-.64.53-.81.65-1,.8-.88.67-1.09.85-.93.74-1.08.93c-.27.25-.54.5-.79.75a14.23,14.23,0,0,0-1.38,1.57Z"/><path class="cls-2" d="M62.2,15.29h-.07a3.2,3.2,0,0,1-.64,0A1,1,0,0,1,61,15a1,1,0,0,1-.3-.47,2.44,2.44,0,0,1-.11-.8V2.59l5,13.6H66.7L71.58,2.55V14a2.08,2.08,0,0,1-.13.7,1,1,0,0,1-.31.41,1.11,1.11,0,0,1-.47.19,3.87,3.87,0,0,1-.62,0H70v.9h5.68v-.9h-.27a3.8,3.8,0,0,1-.69,0,1.26,1.26,0,0,1-.55-.21,1.06,1.06,0,0,1-.38-.47,2,2,0,0,1-.13-.8V3.39a2,2,0,0,1,.13-.81,1.09,1.09,0,0,1,.38-.46,1.26,1.26,0,0,1,.55-.21,3.77,3.77,0,0,1,.69-.06h.27V1H70.93l-4.38,12.2L62.13,1H57.27v.89h.27a4.68,4.68,0,0,1,.67,0,1.44,1.44,0,0,1,.56.2,1.12,1.12,0,0,1,.38.45,1.76,1.76,0,0,1,.14.75V13.87a1.76,1.76,0,0,1-.14.75,1,1,0,0,1-.38.43,1.44,1.44,0,0,1-.56.2,4.73,4.73,0,0,1-.67,0h-.27v.9H62.2Z"/><path class="cls-2" d="M77.12,1.92a1.27,1.27,0,0,1,.38.2,1.75,1.75,0,0,1,.32.34c.11.15.22.32.34.52l4,6.85v4a1.61,1.61,0,0,1-.15.75,1,1,0,0,1-.38.43,1.39,1.39,0,0,1-.55.2,4.83,4.83,0,0,1-.67,0h-.49v.9H86.5v-.9H86a3.64,3.64,0,0,1-.67,0,1.31,1.31,0,0,1-.56-.21,1,1,0,0,1-.37-.47,2,2,0,0,1-.14-.8V9.83l3.59-6.32c.18-.32.34-.58.49-.8a3.37,3.37,0,0,1,.43-.51,1.8,1.8,0,0,1,.41-.27,1.27,1.27,0,0,1,.44-.08h.25V1H84.66v.89h.62a1.61,1.61,0,0,1,1,.24.81.81,0,0,1,.33.7,2.67,2.67,0,0,1-.08.59,2.89,2.89,0,0,1-.3.69L84.81,6.52l-.37.67-.36.66c-.11.21-.22.41-.31.6s-.17.36-.24.51c-.12-.33-.26-.71-.43-1.14a12,12,0,0,0-.64-1.3L80.89,3.67c-.09-.16-.17-.33-.26-.53a1.52,1.52,0,0,1-.13-.61.75.75,0,0,1,0-.26.48.48,0,0,1,.14-.22A.67.67,0,0,1,81,1.91a1.61,1.61,0,0,1,.48-.06h.79V1H76.37v.89h.27A1.73,1.73,0,0,1,77.12,1.92Z"/><path class="cls-2" d="M89.25,15.23a2,2,0,0,1-.53.06h-.41v.9h5.21v-.9H93A1.78,1.78,0,0,1,92,15a.88.88,0,0,1-.35-.79,1.7,1.7,0,0,1,0-.42,3,3,0,0,1,.14-.49l.82-2.24h5.6l.86,2.38c0,.16.1.3.13.43a1.47,1.47,0,0,1,0,.36c0,.68-.42,1-1.28,1h-.49v.9h5.87v-.9h-.28a2.29,2.29,0,0,1-.55,0,1,1,0,0,1-.4-.18,1.18,1.18,0,0,1-.31-.35,3.19,3.19,0,0,1-.25-.55L96.74,1H95.08L90.35,13.63c-.14.34-.26.62-.36.83a2,2,0,0,1-.34.51A.92.92,0,0,1,89.25,15.23Zm5.23-9.14c.13-.33.24-.63.34-.91s.18-.53.26-.78l.21-.74c.07-.24.12-.49.17-.74.12.51.27,1,.45,1.6l.61,1.77L97.85,10H93Z"/><path class="cls-2" d="M119,1.85V1h-5.36v.89H114a4.94,4.94,0,0,1,.68,0,1.39,1.39,0,0,1,.55.2,1.12,1.12,0,0,1,.38.45,1.62,1.62,0,0,1,.14.75v9.45L108.08,1h-3.91v.89h.27a4.68,4.68,0,0,1,.67,0,1.44,1.44,0,0,1,.56.2,1.12,1.12,0,0,1,.38.45,1.76,1.76,0,0,1,.14.75V13.76a2,2,0,0,1-.13.8,1.06,1.06,0,0,1-.38.47,1.26,1.26,0,0,1-.56.21,3.69,3.69,0,0,1-.68,0h-.27v.9h5.36v-.9h-.29a3.64,3.64,0,0,1-.67,0A1.26,1.26,0,0,1,108,15a1.13,1.13,0,0,1-.38-.47,2,2,0,0,1-.14-.8V3.9l8,12.29H117V3.39a2,2,0,0,1,.13-.81,1.09,1.09,0,0,1,.38-.46,1.26,1.26,0,0,1,.55-.21,3.77,3.77,0,0,1,.69-.06Z"/><path class="cls-2" d="M125.38,15.29h-.06a3.14,3.14,0,0,1-.64,0,1,1,0,0,1-.49-.21,1,1,0,0,1-.31-.47,2.48,2.48,0,0,1-.1-.8V2.59l4.95,13.6h1.15l4.89-13.64V14a2.05,2.05,0,0,1-.14.7.88.88,0,0,1-.31.41,1.07,1.07,0,0,1-.46.19,4,4,0,0,1-.62,0h-.08v.9h5.68v-.9h-.27a3.69,3.69,0,0,1-.68,0,1.31,1.31,0,0,1-.56-.21,1,1,0,0,1-.37-.47,1.79,1.79,0,0,1-.14-.8V3.39a1.87,1.87,0,0,1,.14-.81,1.07,1.07,0,0,1,.37-.46,1.31,1.31,0,0,1,.56-.21,3.66,3.66,0,0,1,.68-.06h.27V1h-4.73l-4.37,12.2L125.32,1h-4.87v.89h.27a4.94,4.94,0,0,1,.68,0,1.39,1.39,0,0,1,.55.2,1.12,1.12,0,0,1,.38.45,1.62,1.62,0,0,1,.14.75V13.87a1.62,1.62,0,0,1-.14.75,1,1,0,0,1-.38.43,1.39,1.39,0,0,1-.55.2,5,5,0,0,1-.68,0h-.27v.9h4.93Z"/><path class="cls-2" d="M153.87,15.24a1,1,0,0,1-.4-.18,1.18,1.18,0,0,1-.31-.35,4.1,4.1,0,0,1-.26-.55L148.08,1h-1.67l-4.73,12.67c-.13.34-.25.62-.35.83A2.24,2.24,0,0,1,141,15a.92.92,0,0,1-.4.26,2,2,0,0,1-.53.06h-.41v.9h5.21v-.9h-.49A1.84,1.84,0,0,1,143.3,15a.9.9,0,0,1-.34-.79,1.7,1.7,0,0,1,0-.42,3,3,0,0,1,.14-.49L144,11.1h5.6l.86,2.38.13.43a1.47,1.47,0,0,1,0,.36c0,.68-.42,1-1.28,1h-.49v.9h5.87v-.9h-.28A2.29,2.29,0,0,1,153.87,15.24ZM144.37,10l1.45-3.93c.13-.33.24-.63.33-.91s.19-.53.26-.78.15-.5.22-.74.12-.49.17-.74c.12.51.27,1,.45,1.6l.61,1.77L149.19,10Z"/><path class="cls-2" d="M63.48,35.85H63.2a4.94,4.94,0,0,1-.68-.05,1.4,1.4,0,0,1-.56-.22,1.08,1.08,0,0,1-.37-.46,1.82,1.82,0,0,1-.14-.8v-5h6.94v5a1.81,1.81,0,0,1-.15.8,1,1,0,0,1-.37.46,1.41,1.41,0,0,1-.55.22,4.83,4.83,0,0,1-.68.05h-.29v.9h6.21v-.9h-.27a4.8,4.8,0,0,1-.67-.05,1.43,1.43,0,0,1-.56-.19,1.07,1.07,0,0,1-.38-.43,1.78,1.78,0,0,1-.14-.76V23.94a2,2,0,0,1,.14-.8,1,1,0,0,1,.37-.46,1.46,1.46,0,0,1,.56-.22,4.83,4.83,0,0,1,.68-.05h.27v-.89H66.35v.89h.29a4.83,4.83,0,0,1,.68.05,1.41,1.41,0,0,1,.55.22,1,1,0,0,1,.37.46,1.81,1.81,0,0,1,.15.8v4.32H61.45V23.94a1.82,1.82,0,0,1,.14-.8,1.08,1.08,0,0,1,.37-.46,1.4,1.4,0,0,1,.56-.22,4.94,4.94,0,0,1,.68-.05h.28v-.89H57.27v.89h.27a4.68,4.68,0,0,1,.67.05,1.44,1.44,0,0,1,.56.2,1.09,1.09,0,0,1,.38.44,1.84,1.84,0,0,1,.14.76V34.32a1.82,1.82,0,0,1-.14.8,1,1,0,0,1-.37.46,1.46,1.46,0,0,1-.56.22,4.83,4.83,0,0,1-.68.05h-.27v.9h6.21Z"/><path class="cls-2" d="M78.51,23.14a1,1,0,0,1,.37-.46,1.4,1.4,0,0,1,.56-.22,4.83,4.83,0,0,1,.68-.05h.28v-.89H74.19v.89h.27a4.83,4.83,0,0,1,.68.05,1.46,1.46,0,0,1,.56.22,1,1,0,0,1,.37.46,2,2,0,0,1,.14.8V34.32a2,2,0,0,1-.14.8,1,1,0,0,1-.37.46,1.46,1.46,0,0,1-.56.22,4.83,4.83,0,0,1-.68.05h-.27v.9H80.4v-.9h-.28a4.83,4.83,0,0,1-.68-.05,1.4,1.4,0,0,1-.56-.22,1,1,0,0,1-.37-.46,1.82,1.82,0,0,1-.14-.8V23.94A1.82,1.82,0,0,1,78.51,23.14Z"/><path class="cls-2" d="M89.76,37a12.09,12.09,0,0,0,2.51-.24A9.71,9.71,0,0,0,94.48,36V32.14a2.31,2.31,0,0,1,.12-.81,1,1,0,0,1,.31-.46,1.08,1.08,0,0,1,.47-.22,3.45,3.45,0,0,1,.57,0H96v-.9H90.49v.9h.09a4.8,4.8,0,0,1,.67,0,1.57,1.57,0,0,1,.55.2,1.09,1.09,0,0,1,.38.44,1.66,1.66,0,0,1,.15.76v3.44a5.74,5.74,0,0,1-1,.19,9.28,9.28,0,0,1-1.19.07,6.2,6.2,0,0,1-2.47-.44A4,4,0,0,1,86,34a5.56,5.56,0,0,1-.92-2.09,13.29,13.29,0,0,1-.28-2.83,13.53,13.53,0,0,1,.27-2.85,5.62,5.62,0,0,1,.88-2.09,3.87,3.87,0,0,1,1.56-1.3,5.49,5.49,0,0,1,2.3-.44,3.1,3.1,0,0,1,1.33.25,2.39,2.39,0,0,1,.87.63,2.52,2.52,0,0,1,.48.88,3.4,3.4,0,0,1,.15,1,2.71,2.71,0,0,0,.77-.1,2,2,0,0,0,.63-.3,1.35,1.35,0,0,0,.42-.47,1.27,1.27,0,0,0,.16-.62,1.74,1.74,0,0,0-.29-1,2.52,2.52,0,0,0-.89-.76,5.41,5.41,0,0,0-1.46-.5,10.49,10.49,0,0,0-2.07-.18,8.52,8.52,0,0,0-3.24.57,6.5,6.5,0,0,0-2.34,1.6,6.78,6.78,0,0,0-1.42,2.47,10.29,10.29,0,0,0-.47,3.17,10.83,10.83,0,0,0,.45,3.21,6.57,6.57,0,0,0,1.36,2.48,5.9,5.9,0,0,0,2.29,1.59A8.44,8.44,0,0,0,89.76,37Z"/><path class="cls-2" d="M103.46,35.85h-.28a4.94,4.94,0,0,1-.68-.05,1.35,1.35,0,0,1-.55-.22,1,1,0,0,1-.38-.46,2,2,0,0,1-.14-.8v-5h6.94v5a2,2,0,0,1-.14.8,1.1,1.1,0,0,1-.38.46,1.35,1.35,0,0,1-.55.22,4.83,4.83,0,0,1-.68.05h-.28v.9h6.21v-.9h-.27a4.94,4.94,0,0,1-.68-.05,1.38,1.38,0,0,1-.55-.19,1,1,0,0,1-.38-.43,1.64,1.64,0,0,1-.14-.76V23.94a2,2,0,0,1,.13-.8,1,1,0,0,1,.38-.46,1.41,1.41,0,0,1,.55-.22,4.86,4.86,0,0,1,.69-.05h.27v-.89h-6.21v.89h.28a4.83,4.83,0,0,1,.68.05,1.35,1.35,0,0,1,.55.22,1.1,1.1,0,0,1,.38.46,2,2,0,0,1,.14.8v4.32h-6.94V23.94a2,2,0,0,1,.14-.8,1,1,0,0,1,.38-.46,1.35,1.35,0,0,1,.55-.22,4.94,4.94,0,0,1,.68-.05h.28v-.89H97.25v.89h.27a4.94,4.94,0,0,1,.68.05,1.39,1.39,0,0,1,.55.2,1.09,1.09,0,0,1,.38.44,1.69,1.69,0,0,1,.14.76V34.32a2,2,0,0,1-.13.8,1,1,0,0,1-.38.46,1.41,1.41,0,0,1-.55.22,5,5,0,0,1-.69.05h-.27v.9h6.21Z"/><path class="cls-2" d="M65.93,50.58a6,6,0,0,0-1.25-1A15.35,15.35,0,0,0,63,48.81a14.9,14.9,0,0,1-1.56-.72,4.34,4.34,0,0,1-1-.74,2.24,2.24,0,0,1-.56-.88,3.44,3.44,0,0,1-.16-1.12,2.91,2.91,0,0,1,.17-1,2.12,2.12,0,0,1,.51-.76,2.33,2.33,0,0,1,.82-.49,3.18,3.18,0,0,1,1.1-.17,2.46,2.46,0,0,1,1.14.24,2.14,2.14,0,0,1,.74.62,2.52,2.52,0,0,1,.4.86,4,4,0,0,1,.12,1,2,2,0,0,0,1.22-.34,1.24,1.24,0,0,0,.45-1,1.67,1.67,0,0,0-.26-.9,2.49,2.49,0,0,0-.78-.77,4.24,4.24,0,0,0-1.25-.53,6.67,6.67,0,0,0-1.7-.2,6.48,6.48,0,0,0-1.86.26,4.6,4.6,0,0,0-1.48.76,3.36,3.36,0,0,0-1,1.21,3.62,3.62,0,0,0-.35,1.64A4.79,4.79,0,0,0,58,47.29a3.76,3.76,0,0,0,.73,1.27,5.09,5.09,0,0,0,1.23,1,11,11,0,0,0,1.72.87,16.18,16.18,0,0,1,1.57.73,5.17,5.17,0,0,1,1,.73,2.27,2.27,0,0,1,.55.83,3,3,0,0,1,.17,1,2.5,2.5,0,0,1-.81,2,3.36,3.36,0,0,1-2.25.69,2.69,2.69,0,0,1-1.28-.28,2.63,2.63,0,0,1-.87-.75,3.44,3.44,0,0,1-.52-1.09,5.9,5.9,0,0,1-.2-1.28,1.58,1.58,0,0,0-1.14.4,1.38,1.38,0,0,0-.4,1,2.73,2.73,0,0,0,.27,1.22,2.46,2.46,0,0,0,.81,1,3.9,3.9,0,0,0,1.33.61,6.77,6.77,0,0,0,1.84.22,7.35,7.35,0,0,0,2.17-.29,4.92,4.92,0,0,0,1.65-.83A3.77,3.77,0,0,0,66.61,55,4.21,4.21,0,0,0,67,53.23a3.78,3.78,0,0,0-.27-1.47A3.68,3.68,0,0,0,65.93,50.58Z"/><path class="cls-2" d="M81,44a5.82,5.82,0,0,0-2.09-1.58A7,7,0,0,0,76,41.83a7.39,7.39,0,0,0-3,.56A5.46,5.46,0,0,0,70.93,44a6.65,6.65,0,0,0-1.25,2.46,12.55,12.55,0,0,0,0,6.44,6.67,6.67,0,0,0,1.25,2.48A5.55,5.55,0,0,0,73,57a7.3,7.3,0,0,0,3,.56A7,7,0,0,0,78.84,57,5.78,5.78,0,0,0,81,55.35a6.91,6.91,0,0,0,1.29-2.47,12,12,0,0,0,0-6.44A7,7,0,0,0,81,44Zm-.87,8.52a6.31,6.31,0,0,1-.74,2.11A3.51,3.51,0,0,1,78,55.91a4.67,4.67,0,0,1-4,0,3.6,3.6,0,0,1-1.35-1.31,6.54,6.54,0,0,1-.75-2.11,17.46,17.46,0,0,1,0-5.65,6.25,6.25,0,0,1,.76-2.1A3.53,3.53,0,0,1,74,43.44,4.22,4.22,0,0,1,76,43a4.15,4.15,0,0,1,2,.45,3.52,3.52,0,0,1,1.33,1.3,6.25,6.25,0,0,1,.74,2.1,17.46,17.46,0,0,1,0,5.65Z"/><path class="cls-2" d="M88.49,44.72a3.63,3.63,0,0,1,1.38-1.29,4.41,4.41,0,0,1,2-.44,2.6,2.6,0,0,1,1.17.24,2.32,2.32,0,0,1,.77.64,2.49,2.49,0,0,1,.43.88,3.74,3.74,0,0,1,.13,1,2.43,2.43,0,0,0,.73-.11,1.55,1.55,0,0,0,.59-.29,1.35,1.35,0,0,0,.39-.47,1.26,1.26,0,0,0,.14-.62,1.77,1.77,0,0,0-.26-1,2.44,2.44,0,0,0-.8-.76,4.71,4.71,0,0,0-1.35-.5,8.19,8.19,0,0,0-1.9-.19,7.12,7.12,0,0,0-3,.58A5.8,5.8,0,0,0,86.85,44a7.18,7.18,0,0,0-1.3,2.47,10.9,10.9,0,0,0-.43,3.17,12,12,0,0,0,.41,3.21,7,7,0,0,0,1.24,2.47,5.55,5.55,0,0,0,2,1.6,6.68,6.68,0,0,0,2.81.56,8.25,8.25,0,0,0,2.05-.22,5.46,5.46,0,0,0,1.43-.57,2.59,2.59,0,0,0,.83-.77,1.45,1.45,0,0,0,.28-.82,1.16,1.16,0,0,0-.11-.53,1,1,0,0,0-.3-.31,4.38,4.38,0,0,1-.62.68,3.65,3.65,0,0,1-.8.58,4.41,4.41,0,0,1-1.06.4,5.72,5.72,0,0,1-1.38.15,4.1,4.1,0,0,1-2-.46,4,4,0,0,1-1.38-1.32,6.25,6.25,0,0,1-.79-2,12.44,12.44,0,0,1-.25-2.61,15.16,15.16,0,0,1,.24-2.85A6.25,6.25,0,0,1,88.49,44.72Z"/><path class="cls-2" d="M97.81,43h.27a4.83,4.83,0,0,1,.68.05,1.45,1.45,0,0,1,.56.21,1.1,1.1,0,0,1,.37.47,2,2,0,0,1,.14.8V54.88a2,2,0,0,1-.14.8,1.07,1.07,0,0,1-.37.46,1.31,1.31,0,0,1-.56.21,3.66,3.66,0,0,1-.68.06h-.27v.89H104v-.89h-.28a3.63,3.63,0,0,1-.67-.06,1.21,1.21,0,0,1-.56-.21,1.16,1.16,0,0,1-.38-.46,2,2,0,0,1-.14-.8V44.5a2,2,0,0,1,.14-.8,1.2,1.2,0,0,1,.38-.47,1.34,1.34,0,0,1,.56-.21,4.8,4.8,0,0,1,.67-.05H104v-.9h-6.2Z"/><path class="cls-2" d="M116,54.49a2.45,2.45,0,0,1-.18.67,1.79,1.79,0,0,1-.38.56,1.67,1.67,0,0,1-.6.38,2.48,2.48,0,0,1-.87.14h-4.11V49.85H115v-1h-5.14V43.13h3.58a2,2,0,0,1,.82.15,1.59,1.59,0,0,1,.56.38,1.64,1.64,0,0,1,.34.55,3,3,0,0,1,.17.67l.1.92h1.1l-.1-3.73H105.64V43h.27a4.83,4.83,0,0,1,.68.05,1.45,1.45,0,0,1,.56.21,1.1,1.1,0,0,1,.37.47,1.82,1.82,0,0,1,.14.8V55a1.76,1.76,0,0,1-.14.75,1,1,0,0,1-.38.44,1.61,1.61,0,0,1-.56.19,4.68,4.68,0,0,1-.67,0h-.27v.89h11.44l.14-3.73h-1.11Z"/><path class="cls-2" d="M118.65,42.07l-.1,3.73h1.1l.12-.92a3,3,0,0,1,.14-.67,1.41,1.41,0,0,1,.3-.55,1.35,1.35,0,0,1,.52-.38,1.82,1.82,0,0,1,.79-.15h2V55a1.76,1.76,0,0,1-.14.75,1,1,0,0,1-.38.44,1.61,1.61,0,0,1-.56.19,4.8,4.8,0,0,1-.67,0h-.49v.89H128v-.89h-.49a3.63,3.63,0,0,1-.67-.06,1.26,1.26,0,0,1-.56-.21,1.16,1.16,0,0,1-.38-.46,2,2,0,0,1-.14-.8V43.13h2.08a1.9,1.9,0,0,1,.8.15,1.35,1.35,0,0,1,.52.38,1.72,1.72,0,0,1,.3.55,3.63,3.63,0,0,1,.15.67l.1.92h1.11l-.11-3.73Z"/><path class="cls-2" d="M139.38,43H140a1.71,1.71,0,0,1,1,.23.81.81,0,0,1,.33.71,2.16,2.16,0,0,1-.09.58,3.13,3.13,0,0,1-.3.7l-1.36,2.44-.38.68-.36.65-.31.6c-.09.19-.17.36-.23.51-.12-.33-.27-.71-.44-1.14a10.4,10.4,0,0,0-.64-1.3l-1.57-2.85a5.35,5.35,0,0,1-.25-.53,1.46,1.46,0,0,1-.13-.61,1.15,1.15,0,0,1,0-.26.49.49,0,0,1,.14-.21.62.62,0,0,1,.29-.15,2,2,0,0,1,.47-.05h.8v-.9h-5.87V43h.27a1.75,1.75,0,0,1,.48.06,1.07,1.07,0,0,1,.38.2,1.87,1.87,0,0,1,.33.35q.15.21.33.51l4,6.86v4a1.76,1.76,0,0,1-.14.75,1,1,0,0,1-.38.44,1.61,1.61,0,0,1-.56.19,4.68,4.68,0,0,1-.67,0h-.49v.89h6.64v-.89h-.5a3.74,3.74,0,0,1-.68-.06,1.26,1.26,0,0,1-.55-.21,1.09,1.09,0,0,1-.38-.46,2,2,0,0,1-.13-.8V51l3.58-6.33a8.64,8.64,0,0,1,.5-.79,2.87,2.87,0,0,1,.43-.51,1.21,1.21,0,0,1,.41-.27,1,1,0,0,1,.43-.08h.25v-.9h-5.21Z"/><path class="cls-2" d="M173.93,19.38s-2.7,1.73-5.34-2.48L164.23,10s-.42-.78-.88-.9l.24-.1a7,7,0,0,0,1.13-.5,4.47,4.47,0,0,0,1-.78,3.55,3.55,0,0,0,.72-1.11,3.68,3.68,0,0,0,.28-1.5A3.63,3.63,0,0,0,165.37,2a6.81,6.81,0,0,0-4.12-1h-5.74v.89h.27a4.68,4.68,0,0,1,.67,0,1.44,1.44,0,0,1,.56.2,1.12,1.12,0,0,1,.38.45,1.76,1.76,0,0,1,.14.75V13.87a1.76,1.76,0,0,1-.14.75,1,1,0,0,1-.38.43,1.44,1.44,0,0,1-.56.2,4.73,4.73,0,0,1-.67,0h-.27v.9h6.21v-.9h-.28a4.73,4.73,0,0,1-.67,0,1.38,1.38,0,0,1-.56-.2,1,1,0,0,1-.38-.43,1.62,1.62,0,0,1-.14-.75V9.47h1.77s3.59,6.17,5,8.06,4.4,4.71,7.74,2.54ZM161.19,8.47h-1.5V2h1.45a6.1,6.1,0,0,1,1.53.17,2.48,2.48,0,0,1,1,.55,2.27,2.27,0,0,1,.57,1,5.15,5.15,0,0,1,.18,1.46,6.18,6.18,0,0,1-.16,1.45,2.5,2.5,0,0,1-.54,1,2.34,2.34,0,0,1-1,.62A5,5,0,0,1,161.19,8.47Z"/></g></g></svg>