<svg xmlns="http://www.w3.org/2000/svg" viewBox="0 0 43.73 43.75"><defs><style>.cls-1{fill:#fff;fill-rule:evenodd;}</style></defs><title>Asset 8</title><g id="Layer_2" data-name="Layer 2"><g id="Layer_1-2" data-name="Layer 1"><path class="cls-1" d="M39,8.27l0,0A21.84,21.84,0,0,0,21.87,0,22.23,22.23,0,0,0,18,.34l0,0A21.65,21.65,0,0,0,4.88,8.12l-.15.17A21.8,21.8,0,0,0,0,21.87v.35A21.64,21.64,0,0,0,3.07,33.05,21.91,21.91,0,0,0,18.42,43.48a23,23,0,0,0,3.45.27,21.72,21.72,0,0,0,11.11-3,22.3,22.3,0,0,0,5.67-4.8,21.68,21.68,0,0,0,4.49-9,22.42,22.42,0,0,0,.59-5.08A21.72,21.72,0,0,0,39,8.27ZM37.88,35.19a3.8,3.8,0,0,1-.73-.83c-.53-1-.91-1.84-.91-1.84a21.24,21.24,0,0,0-2.92,4.3A3.67,3.67,0,0,0,33,38.66c-.07.57-.27-1-.12.86-.15.1-.29.2-.45.29a20.81,20.81,0,0,1-13.86,2.63c-.24,0-.47-.1-.71-.15-.23-.46-.52-1-.9-1.71-1.59-2.93-1.69-.47-2.31-.85s-2-.45-3.21-2.22-.7-2.24-.7-2.24a7.59,7.59,0,0,0-2.3-2.75c-1.14-1-3.09-.44-4.41.1L4,32.51A20.63,20.63,0,0,1,1,22.22H1a6.93,6.93,0,0,0,1.58-.34c3.07-1,1.6-2.78,2-3.47s1.46-.09,4.07.22.76-1.54.46-3.22,1.93-3.3,1.23-4.08-1.15.09-2.92-1.45A14.84,14.84,0,0,1,6,8.47,20.68,20.68,0,0,1,18.19,1.38l.27,0A20.94,20.94,0,0,1,21.87,1,20.69,20.69,0,0,1,37.69,8.38l-1,.13c-1.07.16-.92.82-1.49,1.65a14.49,14.49,0,0,1-2,1.88c-.56.54-2.06,0-2.06,0l-4.53,0s-3.22.71-5.06,1.08-3.88.22-6.43,2.23c-.32.26-1.49.87-1.74,1.76s-.77,2.56-.77,2.56-1.64.45-1.82,1.43,2.5.44,4.11,1.83,1.65,2.43,2.68,3.9a6.36,6.36,0,0,0,2,2A1.67,1.67,0,0,1,21,28.35c.91.15,1.09.06,1.14.46s-.47.84,0,.73-.29-1.27.89.24,1.85.54,2.29.68-.28.43.6,1.3a2,2,0,0,0,3.32-.23c.95-1.48,1.42-1.75,2.83-4A35.28,35.28,0,0,0,34,24.22l0,0c.63-1.23.79,0,1.15-.58s1.58-.86,3.07-.55.1,1.64.87,3,1.89-.2,2.67,0a2,2,0,0,1,.4.18l-.09.46A20.82,20.82,0,0,1,37.88,35.19Z"/></g></g></svg>