<svg xmlns="http://www.w3.org/2000/svg" viewBox="0 0 121.66 121.66"><defs><style>.cls-1,.cls-10,.cls-5{fill:#fff;}.cls-1{opacity:0;}.cls-2{fill:#f4ce2c;}.cls-3,.cls-4{fill:#424242;}.cls-12,.cls-13,.cls-14,.cls-4,.cls-5{fill-rule:evenodd;}.cls-12,.cls-6{fill:#f9dea7;}.cls-13,.cls-7{fill:#8bb6ea;}.cls-14,.cls-8{fill:#c0daf9;}.cls-9{fill:#316edb;}.cls-11{fill:#c1c1c1;}</style></defs><title>Asset 15</title><g id="Layer_2" data-name="Layer 2"><g id="Layer_1-2" data-name="Layer 1"><rect class="cls-1" width="121.66" height="121.66"/><circle class="cls-2" cx="61.13" cy="60.96" r="48.84"/><path class="cls-3" d="M36.7,78.24V89.75a2.45,2.45,0,0,1-2.45,2.45H6.8a2.45,2.45,0,0,1-2.45-2.45V53.12A2.45,2.45,0,0,1,6.8,50.68H25.87v1.54H6.8a.9.9,0,0,0-.9.9V89.75a.9.9,0,0,0,.9.9H34.25a.91.91,0,0,0,.9-.9V78.24Z"/><path class="cls-4" d="M111.89,61H102.1a3.42,3.42,0,0,0-3.42,3.41V89.05a3.42,3.42,0,0,0,3.42,3.42h9.79a3.42,3.42,0,0,0,3.42-3.42V64.37A3.42,3.42,0,0,0,111.89,61Zm1.87,28.09a1.87,1.87,0,0,1-1.87,1.87H102.1a1.87,1.87,0,0,1-1.87-1.87V64.37a1.87,1.87,0,0,1,1.87-1.86h1.45v1.18a.37.37,0,0,0,.36.37h6.17a.37.37,0,0,0,.36-.37V62.51h1.45a1.87,1.87,0,0,1,1.87,1.86Z"/><path class="cls-5" d="M113.76,64.37V89.05a1.87,1.87,0,0,1-1.87,1.87H102.1a1.87,1.87,0,0,1-1.87-1.87V64.37a1.87,1.87,0,0,1,1.87-1.86h1.45v1.18a.37.37,0,0,0,.36.37h6.17a.37.37,0,0,0,.36-.37V62.51h1.45A1.87,1.87,0,0,1,113.76,64.37Z"/><rect class="cls-6" x="101.71" y="73.32" width="10.57" height="0.81" rx="0.4" ry="0.4"/><rect class="cls-6" x="101.71" y="79.66" width="10.57" height="5.79" rx="0.4" ry="0.4"/><rect class="cls-7" x="101.71" y="74.85" width="10.57" height="0.81" rx="0.4" ry="0.4"/><rect class="cls-8" x="101.71" y="76.38" width="6.79" height="0.81" rx="0.4" ry="0.4"/><rect class="cls-8" x="109.35" y="76.38" width="2.93" height="0.81" rx="0.4" ry="0.4"/><rect class="cls-9" x="104.64" y="66.72" width="4.71" height="4.71" rx="0.89" ry="0.89"/><path class="cls-3" d="M94,28.75H28.32a2.45,2.45,0,0,0-2.45,2.45V76.07a2.44,2.44,0,0,0,2.45,2.44H50.76V88h-4.4v4.52H76V88H71.61V78.51H94a2.45,2.45,0,0,0,2.45-2.44V31.2A2.45,2.45,0,0,0,94,28.75ZM74.45,89.5v1.42H47.91V89.5ZM52.31,88V78.51H70.06V88ZM94.94,76.07a.9.9,0,0,1-.9.9H28.32a.9.9,0,0,1-.9-.9V69.85H94.94Zm0-7.76H27.42V31.2a.9.9,0,0,1,.9-.9H94a.9.9,0,0,1,.9.9Z"/><path class="cls-10" d="M35.15,78.51V89.75a.91.91,0,0,1-.9.9H6.8a.9.9,0,0,1-.9-.9V53.12a.9.9,0,0,1,.9-.9H25.87V76.07a2.44,2.44,0,0,0,2.45,2.44Z"/><rect class="cls-11" x="47.91" y="89.5" width="26.55" height="1.42"/><rect class="cls-11" x="52.31" y="78.51" width="17.75" height="9.44"/><path class="cls-11" d="M94.94,69.85v6.22a.9.9,0,0,1-.9.9H28.32a.9.9,0,0,1-.9-.9V69.85Z"/><path class="cls-12" d="M25.87,54.9v1.31H16.46a.6.6,0,0,1-.61-.59V55.5a.6.6,0,0,1,.61-.6Z"/><path class="cls-13" d="M25.87,57.38V58.7H16.46a.6.6,0,0,1-.61-.6V58a.6.6,0,0,1,.61-.6Z"/><path class="cls-13" d="M8.69,72.66H25.87V74H8.69a.6.6,0,0,1-.61-.59v-.13A.6.6,0,0,1,8.69,72.66Z"/><rect class="cls-7" x="8.08" y="81" width="24.88" height="1.31" rx="0.66" ry="0.66"/><rect class="cls-6" x="8.13" y="83.48" width="17.75" height="1.31" rx="0.66" ry="0.66"/><rect class="cls-6" x="8.13" y="78.51" width="3.89" height="1.31" rx="0.66" ry="0.66"/><rect class="cls-8" x="27.55" y="83.48" width="5.42" height="1.31" rx="0.66" ry="0.66"/><path class="cls-14" d="M15.85,60.58v-.11a.61.61,0,0,1,.61-.61h9.41v1.32H16.46A.6.6,0,0,1,15.85,60.58Z"/><path class="cls-14" d="M8.08,70.9v-.12a.6.6,0,0,1,.61-.6H25.87v1.31H8.69A.6.6,0,0,1,8.08,70.9Z"/><path class="cls-12" d="M18.52,75.14a.6.6,0,0,1,.6.6v.12a.6.6,0,0,1-.6.6H8.72a.6.6,0,0,1-.59-.6v-.12a.6.6,0,0,1,.59-.6Z"/><path class="cls-12" d="M8.08,67.08V64.6a.69.69,0,0,1,.69-.69h17.1v3.86H8.77A.69.69,0,0,1,8.08,67.08Z"/><rect class="cls-9" x="8.13" y="54.9" width="5.09" height="5.09" rx="0.89" ry="0.89"/><path class="cls-10" d="M94.94,31.2V68.31H27.42V31.2a.9.9,0,0,1,.9-.9H94A.9.9,0,0,1,94.94,31.2Z"/><rect class="cls-6" x="50.76" y="35.48" width="38" height="2.92" rx="0.89" ry="0.89"/><rect class="cls-7" x="50.76" y="40.99" width="38" height="2.92" rx="0.89" ry="0.89"/><rect class="cls-8" x="50.76" y="46.5" width="24.4" height="2.92" rx="0.89" ry="0.89"/><rect class="cls-8" x="78.84" y="46.5" width="9.92" height="2.92" rx="0.89" ry="0.89"/><rect class="cls-9" x="33.61" y="35.48" width="11.31" height="11.31" rx="0.89" ry="0.89"/><rect class="cls-6" x="33.51" y="55.49" width="55.25" height="8.57" rx="0.89" ry="0.89"/></g></g></svg>