<svg xmlns="http://www.w3.org/2000/svg" viewBox="0 0 487.34 595.43"><defs><style>.cls-1{fill:#424242;}.cls-1,.cls-2,.cls-3,.cls-4,.cls-5,.cls-6,.cls-7,.cls-8{fill-rule:evenodd;}.cls-2{fill:#fff;}.cls-3{fill:#c0daf9;}.cls-4{fill:#8bb6ea;}.cls-5{fill:#82d873;}.cls-6{fill:#f4ce2c;}.cls-7{fill:#f9dea7;}.cls-8{fill:#316edb;}</style></defs><title>Asset 5</title><g id="Layer_2" data-name="Layer 2"><g id="Layer_1-2" data-name="Layer 1"><path class="cls-1" d="M204.38,5.09,23,101.54A43.34,43.34,0,0,0,5.09,160.17L224.31,572.42a43.35,43.35,0,0,0,58.63,17.92l181.38-96.45a43.37,43.37,0,0,0,17.94-58.64L263,23A43.37,43.37,0,0,0,204.38,5.09ZM470.75,441.37a30.36,30.36,0,0,1-12.56,41L276.82,578.83a30.34,30.34,0,0,1-41-12.53L16.6,154.05a30.35,30.35,0,0,1,12.53-41L66.34,93.26,73,105.84A8.35,8.35,0,0,0,84.3,109.3l92.25-49.06A8.35,8.35,0,0,0,180,49l-6.69-12.57L210.5,16.6a30.38,30.38,0,0,1,41,12.52Z"/><path class="cls-2" d="M251.52,29.12,470.75,441.37a30.36,30.36,0,0,1-12.56,41L276.82,578.83a30.34,30.34,0,0,1-41-12.53L16.6,154.05a30.35,30.35,0,0,1,12.53-41L66.34,93.26,73,105.84A8.35,8.35,0,0,0,84.3,109.3l92.25-49.06A8.35,8.35,0,0,0,180,49l-6.69-12.57L210.5,16.6A30.38,30.38,0,0,1,251.52,29.12Z"/><path class="cls-3" d="M90.37,161.06,99.91,179a10.6,10.6,0,0,1-4.4,14.33l-17.94,9.54a10.58,10.58,0,0,1-14.32-4.38l-9.54-17.94a10.59,10.59,0,0,1,4.37-14.34L76,156.67A10.61,10.61,0,0,1,90.37,161.06Z"/><path class="cls-3" d="M144.49,132.28,154,150.22a10.6,10.6,0,0,1-4.4,14.33l-17.94,9.54a10.59,10.59,0,0,1-14.32-4.38l-9.54-17.94a10.59,10.59,0,0,1,4.37-14.34l17.94-9.54A10.61,10.61,0,0,1,144.49,132.28Z"/><path class="cls-3" d="M198.62,103.5l9.54,17.94a10.61,10.61,0,0,1-4.4,14.33l-17.94,9.54a10.58,10.58,0,0,1-14.32-4.38L162,123a10.57,10.57,0,0,1,4.36-14.34l17.94-9.54A10.62,10.62,0,0,1,198.62,103.5Z"/><path class="cls-3" d="M252.74,74.72l9.54,17.94a10.61,10.61,0,0,1-4.4,14.33l-17.94,9.54a10.59,10.59,0,0,1-14.32-4.38l-9.54-17.94a10.59,10.59,0,0,1,4.37-14.34l17.94-9.54A10.6,10.6,0,0,1,252.74,74.72Z"/><path class="cls-3" d="M122.28,221.06,131.82,239a10.61,10.61,0,0,1-4.4,14.34l-17.94,9.54a10.59,10.59,0,0,1-14.32-4.38l-9.54-17.94A10.59,10.59,0,0,1,90,226.22l17.94-9.54A10.6,10.6,0,0,1,122.28,221.06Z"/><path class="cls-4" d="M176.4,192.28l9.54,17.94a10.6,10.6,0,0,1-4.4,14.33l-17.94,9.54a10.58,10.58,0,0,1-14.32-4.37l-9.54-17.94a10.59,10.59,0,0,1,4.37-14.34l17.94-9.54A10.6,10.6,0,0,1,176.4,192.28Z"/><path class="cls-5" d="M230.53,163.5l9.54,17.94a10.61,10.61,0,0,1-4.4,14.33l-17.94,9.54a10.58,10.58,0,0,1-14.32-4.37L193.87,183a10.59,10.59,0,0,1,4.36-14.35l17.94-9.54A10.62,10.62,0,0,1,230.53,163.5Z"/><path class="cls-3" d="M284.65,134.72l9.54,17.94a10.6,10.6,0,0,1-4.4,14.33l-17.94,9.54a10.58,10.58,0,0,1-14.32-4.38L248,154.21a10.6,10.6,0,0,1,4.36-14.34l17.94-9.54A10.62,10.62,0,0,1,284.65,134.72Z"/><path class="cls-3" d="M154.19,281.07,163.73,299a10.6,10.6,0,0,1-4.4,14.33l-17.94,9.54a10.58,10.58,0,0,1-14.32-4.38l-9.54-17.94a10.6,10.6,0,0,1,4.36-14.34l17.94-9.54A10.62,10.62,0,0,1,154.19,281.07Z"/><path class="cls-5" d="M208.31,252.29l9.54,17.94a10.6,10.6,0,0,1-4.4,14.33l-17.94,9.54a10.58,10.58,0,0,1-14.32-4.38l-9.54-17.94A10.59,10.59,0,0,1,176,257.44L194,247.9A10.61,10.61,0,0,1,208.31,252.29Z"/><path class="cls-6" d="M262.43,223.51,272,241.45a10.6,10.6,0,0,1-4.39,14.33l-17.94,9.54a10.58,10.58,0,0,1-14.32-4.38L225.78,243a10.57,10.57,0,0,1,4.36-14.34l17.94-9.54A10.61,10.61,0,0,1,262.43,223.51Z"/><path class="cls-3" d="M316.56,194.72l9.54,17.94A10.61,10.61,0,0,1,321.7,227l-17.94,9.54a10.59,10.59,0,0,1-14.32-4.38l-9.54-17.94a10.59,10.59,0,0,1,4.36-14.34l17.94-9.54A10.62,10.62,0,0,1,316.56,194.72Z"/><path class="cls-3" d="M186.1,341.07,195.64,359a10.61,10.61,0,0,1-4.4,14.34l-17.94,9.54A10.59,10.59,0,0,1,159,378.51l-9.54-17.94a10.59,10.59,0,0,1,4.36-14.34l17.94-9.54A10.62,10.62,0,0,1,186.1,341.07Z"/><path class="cls-7" d="M240.22,312.29l9.54,17.94a10.6,10.6,0,0,1-4.4,14.33l-17.94,9.54a10.58,10.58,0,0,1-14.32-4.37l-9.54-17.94a10.6,10.6,0,0,1,4.37-14.35l17.94-9.54A10.61,10.61,0,0,1,240.22,312.29Z"/><path class="cls-4" d="M294.34,283.51l9.54,17.94a10.59,10.59,0,0,1-4.4,14.33l-17.94,9.54A10.57,10.57,0,0,1,267.23,321L257.69,303a10.59,10.59,0,0,1,4.36-14.35L280,279.12A10.61,10.61,0,0,1,294.34,283.51Z"/><path class="cls-3" d="M348.47,254.73,358,272.67a10.6,10.6,0,0,1-4.4,14.33l-17.94,9.54a10.58,10.58,0,0,1-14.32-4.38l-9.54-17.94a10.59,10.59,0,0,1,4.36-14.34l17.94-9.54A10.62,10.62,0,0,1,348.47,254.73Z"/><path class="cls-3" d="M218,401.08,227.55,419a10.6,10.6,0,0,1-4.4,14.33l-17.94,9.54a10.58,10.58,0,0,1-14.32-4.38l-9.54-17.94a10.58,10.58,0,0,1,4.36-14.34l17.94-9.54A10.62,10.62,0,0,1,218,401.08Z"/><path class="cls-7" d="M272.13,372.3l9.54,17.94a10.61,10.61,0,0,1-4.4,14.33l-17.94,9.54A10.58,10.58,0,0,1,245,409.73l-9.54-17.94a10.59,10.59,0,0,1,4.37-14.34l17.94-9.54A10.61,10.61,0,0,1,272.13,372.3Z"/><path class="cls-8" d="M280.55,518.7l9.54,17.94a10.6,10.6,0,0,1-4.4,14.33l-17.94,9.54a10.57,10.57,0,0,1-14.31-4.38l-9.54-17.94a10.57,10.57,0,0,1,4.36-14.34l17.94-9.54A10.61,10.61,0,0,1,280.55,518.7Z"/><path class="cls-8" d="M334.68,489.92l9.54,17.94a10.61,10.61,0,0,1-4.4,14.33l-17.94,9.54a10.59,10.59,0,0,1-14.32-4.38L298,509.41a10.58,10.58,0,0,1,4.36-14.34l17.94-9.54A10.61,10.61,0,0,1,334.68,489.92Z"/><path class="cls-8" d="M388.8,461.13l9.54,17.94a10.6,10.6,0,0,1-4.4,14.33L376,503a10.59,10.59,0,0,1-14.32-4.38l-9.54-17.94a10.59,10.59,0,0,1,4.37-14.34l17.94-9.54A10.6,10.6,0,0,1,388.8,461.13Z"/><path class="cls-8" d="M442.92,432.35l9.54,17.94a10.59,10.59,0,0,1-4.4,14.33l-17.94,9.54a10.58,10.58,0,0,1-14.32-4.37l-9.54-17.94a10.6,10.6,0,0,1,4.37-14.35L428.57,428A10.61,10.61,0,0,1,442.92,432.35Z"/><path class="cls-3" d="M144.71,443.3l8.44,15.87a9.38,9.38,0,0,1-3.89,12.67l-15.87,8.44a9.37,9.37,0,0,1-12.66-3.87l-8.44-15.87a9.36,9.36,0,0,1,3.86-12.68L132,439.42A9.38,9.38,0,0,1,144.71,443.3Z"/><path class="cls-3" d="M61.54,373.06,77,402.18a17.22,17.22,0,0,1-7.14,23.27L40.77,440.94a17.18,17.18,0,0,1-23.25-7.11L2,404.71a17.19,17.19,0,0,1,7.09-23.29l29.12-15.48A17.22,17.22,0,0,1,61.54,373.06Z"/><path class="cls-4" d="M379,112.09l9.36,17.6A10.41,10.41,0,0,1,384,143.75l-17.6,9.35a10.38,10.38,0,0,1-14.05-4.29L343,131.21a10.38,10.38,0,0,1,4.28-14.06l17.59-9.36A10.41,10.41,0,0,1,379,112.09Z"/><path class="cls-6" d="M365.54,30.54l12.15,22.84a13.5,13.5,0,0,1-5.6,18.24L349.25,83.77A13.48,13.48,0,0,1,331,78.2L318.87,55.36a13.47,13.47,0,0,1,5.56-18.26L347.27,25A13.51,13.51,0,0,1,365.54,30.54Z"/></g></g></svg>