<svg xmlns="http://www.w3.org/2000/svg" viewBox="0 0 530.35 625.04"><defs><style>.cls-1{fill:#f4f4f4;}.cls-2{fill:#b2d2f9;}.cls-3{fill:#232323;}.cls-4{fill:#e5a930;}.cls-5{fill:#d4f4ff;}.cls-6{fill:#efc76c;}.cls-7{fill:#f24949;}.cls-8{fill:#a2d1dd;}.cls-9{fill:#e03f3f;}.cls-10{fill:#fff;}</style></defs><title>Asset 11</title><g id="Layer_2" data-name="Layer 2"><g id="Layer_1-2" data-name="Layer 1"><path class="cls-1" d="M512,394.83s7.16-20.49-17.74-31.63c0,0,14.85-23.56-.63-48.71a57.42,57.42,0,0,0-42-26.82s3.65-19.51-18.88-37.49a49.25,49.25,0,0,0-46.47-8.52s7.34-15.17-13.67-24.85L386,174.06l-12.23,5.84-12.75-20-40.35,52s-14-17.35-32.49-13.49a24.65,24.65,0,0,0-6,2.1c-13.47,6.76-16.78,24.13-16.78,24.13s-3.18-9.79-13.91-18.22a53.08,53.08,0,0,0-17.3-8.92c-24.89-7.67-40.6,12.15-40.6,12.15s-5.54-45.27-52.84-56.25a49.6,49.6,0,0,0-18.51-.83s-56.39,1.33-66.39,65.33c0,0-36.5,14-18,58,0,0-26,9-18.5,43s48,46.42,48,46.42l175.5,195.41s-3.36-13.61-8.6-34.88l13.54,19c6.71,16.28,14.81,28.91,23.74,38.61,51.77,56.28,131.43,13.86,131.43,13.86,91,1,87.77-86.2,87.77-86.2s22.35.69,35.95-46S512,394.83,512,394.83Z"/><path class="cls-2" d="M480.34,415.87s28.83-41.64-8.48-75.44c0,0-6.41-21.49-30-24.47,0,0,6-21.11-16-37.34s-43.31-9-43.31-9,3.47-26.31-26.1-34.14L376,190.87,364.41,188l-7.23-7.8-35,55s-12.49-26.09-40-30a50.58,50.58,0,0,0-7.62-.49,44.8,44.8,0,0,0-23.07,6.4c-15.29,9.18-21.06,25.07-21.06,25.07s-20.64-18.66-37.91,1.29c0,0-19.11-25.71-42.75-24.25-13,.79-21.68,7.77-26.88,13.89l-.65-3.88s-14.89-3.23-39.39,15.23-17.5,49.47,0,62.47c0,0-25.5-2.26-46.5,12.5s-18.5,50.89-5.5,68.95c0,0-47,29.05-22.5,92.55,0,0-12.15,31-7.07,69,5,37.49,68.83,86.21,121,76.92V625c26.15-6.35,53.85-22,74.75-44,30.78,14.74,56.32,12.91,74.54,7.05,19.58-6.29,30.68-17.24,30.68-17.24,58.3,36.93,99.53-25.26,99.53-25.26,25.22,7.68,42.88,5.94,55.24-.23a42.82,42.82,0,0,0,7.09-4.4c21.32-16.17,21.76-46.87,21.76-46.87a47.31,47.31,0,0,0,21.46-39.13C507.81,427.75,480.34,415.87,480.34,415.87Z"/><path class="cls-3" d="M441.2,181.19c6.57-17.39,12.41-60.19,13.05-65,3.89-4.84,7.66-9.85,11.2-14.88.95-1.37,1.85-2.74,2.71-4.13,0,0,.06-.07.08-.11s0,0,0-.06C484.18,71.17,485,39.8,480.51,20c-2.2-9.78-5.62-16.61-9.37-18.74S459.77-.29,450.25,2.83c-20.35,6.68-48.81,25-62.05,54.62-2.51,5.61-4.88,11.41-7,17.24-3.81,3-37.57,30-49.13,44.54-2.34,3-2.95,5.79-1.79,8.43.9,2.08,2.88,3.83,5.47,5.3,9.05,5.14,25.54,6.86,29.64,7.22-.29,2.23-.56,4.9-.8,8a8.86,8.86,0,0,0,4.44,8.35l21.27,12.07a8.84,8.84,0,0,0,9.43-.48c2.53-1.79,4.69-3.38,6.45-4.77,2.4,3.33,12.35,16.6,21.39,21.74,2.6,1.47,5.11,2.27,7.36,2C437.75,186.68,439.87,184.71,441.2,181.19ZM451.13,5.53c10.17-3.34,16.28-3.12,18.61-1.79s5.65,6.45,8,16.89c4.27,19,3.6,48.91-11.25,73.8L393.54,53C407.3,27.52,432.65,11.6,451.13,5.53Zm-118.29,121c-.71-1.63-.25-3.44,1.41-5.53,9.49-12,35.2-33.19,45.06-41.18l-.32.92-.4,1.18c-.21.61-.41,1.21-.62,1.81-.13.38-.25.77-.37,1.15-.21.6-.4,1.21-.6,1.81-.11.36-.23.73-.35,1.09-.19.63-.38,1.24-.58,1.85-.1.34-.2.66-.3,1-.21.69-.41,1.37-.62,2l-.22.73c-.27.92-.53,1.83-.79,2.73s-.49,1.77-.73,2.65c-.09.29-.16.57-.24.86-.15.57-.31,1.15-.46,1.71-.09.34-.17.67-.26,1l-.39,1.51c-.09.36-.17.71-.26,1s-.23.93-.34,1.38-.18.71-.26,1.06-.21.88-.31,1.31-.16.69-.24,1-.2.83-.29,1.25-.15.67-.23,1-.17.8-.26,1.19l-.21,1-.24,1.14c-.06.31-.13.63-.2.93s-.15.76-.22,1.14l-.18.85c-.07.4-.14.79-.22,1.17s-.09.49-.14.72c-.12.61-.22,1.19-.32,1.76,0,.23-.09.45-.12.67s-.13.7-.19,1l-.12.77c-.06.28-.1.57-.14.84s-.09.49-.13.73l-.12.77c0,.23-.07.47-.11.7s-.07.46-.1.69-.08.44-.1.66-.07.42-.1.63-.06.4-.08.61-.06.37-.08.56-.05.37-.08.56-.05.33-.07.5l-.06.49-.06.45c0,.15,0,.31-.05.44s0,.25,0,.38,0,.26-.05.38l0,.32c0,.11,0,.24,0,.34s0,.33,0,.47,0,.11,0,.17,0,.15,0,.21a1,1,0,0,1,0,.12.48.48,0,0,1,0,.12h0c0,.05,0,.11,0,.18v0l-.06.26a.13.13,0,0,0,0,.06c0,.1,0,.2-.07.31s0,0,0,0-.05.26-.08.41a.43.43,0,0,1,0,.11q0,.24-.09.51C357.19,136.64,335.83,133.4,332.84,126.53Zm73.45,33-.31.26,0,0c-1.35,1.11-3.79,3-7.89,5.94a6,6,0,0,1-6.39.32L370.39,154a6,6,0,0,1-3-5.66c.39-5.06.8-8.17,1.07-9.87,0-.23.07-.43.1-.61l12.19,6.92c-.35,1-.64,2-.88,2.9l0,.15c-.07.25-.13.49-.18.73a2.25,2.25,0,0,0,0,.22c-.05.21-.09.42-.13.61a2.34,2.34,0,0,0,0,.26c0,.18-.07.36-.1.53s0,.18,0,.27-.05.32-.08.48a2.11,2.11,0,0,0,0,.26c0,.15,0,.3-.06.44s0,.18,0,.26l0,.4a2.09,2.09,0,0,1,0,.25c0,.13,0,.26,0,.38a2,2,0,0,0,0,.24c0,.11,0,.23,0,.34a1.55,1.55,0,0,0,0,.22c0,.11,0,.22,0,.33a1.49,1.49,0,0,1,0,.21l0,.31c0,.06,0,.12,0,.19s0,.19.05.28a1.13,1.13,0,0,0,0,.18,2,2,0,0,0,0,.26,1,1,0,0,0,0,.17l.06.25a.83.83,0,0,1,0,.15c0,.08.05.15.08.22a.57.57,0,0,0,0,.14l.08.21.05.13.09.2.06.11a1,1,0,0,0,.09.18l0,.11a1.4,1.4,0,0,1,.1.16l.06.09a1.3,1.3,0,0,1,.1.15l.06.08.1.14s0,.05.06.07l.11.12.06.07.11.11,0,0a.5.5,0,0,0,.11.1l.05,0,.11.09,0,0,.1.07.05,0,.1.07,0,0,.13.08.12.06.13.08h0l0,0,.09,0,.05,0a.53.53,0,0,1,.1.06h.05l.12,0,.05,0,.13,0,.07,0,.13,0,.08,0,.14,0,.09,0,.14,0,.12,0,.13,0h.86l.21,0h.12l.23,0,.11,0,.25-.05.12,0,.27-.07.1,0,.3-.09.1,0,.32-.11.11-.05c.11,0,.22-.1.33-.15l.1,0,.35-.17.11-.06.37-.2.11-.07.38-.22.11-.08c.14-.08.26-.17.4-.26l.12-.08.4-.28.14-.11.4-.3.15-.13c.14-.1.28-.22.41-.33l.17-.15c.14-.11.27-.23.4-.35l.2-.17.4-.38.21-.2.41-.39.22-.23.4-.42.26-.27.39-.43.28-.31c.13-.14.26-.3.39-.45l.28-.31,12.19,6.92Zm-16-28.44C399.53,114.9,409.1,105,414,100.48a.75.75,0,0,1,.92-.11.76.76,0,0,1,.39.84c-1.35,6.5-5,19.81-14.18,36q-1.64,2.88-3.22,5.37a74.51,74.51,0,0,1-5.06,7.17c-5.45,6.73-8.72,7.26-9.64,6.88l0-.08-.35-.09c-.8-.54-2.1-3.6.93-11.82h0A93.26,93.26,0,0,1,390.33,131.11Zm21.37,24-.52.4-.27.22-.58.45c-.14.12-.27.21-.4.31l-.3.24-.32.24-.19.14-.3.23-.07.06-12.69-7.2c.32-.43.65-.85,1-1.29l.34-.47c.22-.31.44-.61.65-.93l.4-.57.61-.91c.13-.2.27-.42.41-.62l.61-1c.14-.22.28-.43.41-.65s.43-.68.64-1,.27-.42.4-.64c.23-.38.47-.78.7-1.18.11-.19.23-.37.34-.57l1.05-1.81c8.92-15.72,12.8-28.71,14.48-36.84a3.26,3.26,0,0,0,.07-.87,3.6,3.6,0,0,0-.3-1.36s0,0,0,0a2.55,2.55,0,0,0-.25-.46L417.5,99a3.63,3.63,0,0,0-.71-.76,1.37,1.37,0,0,0-.2-.13,2.4,2.4,0,0,0-.29-.19,3.6,3.6,0,0,0-2.2-.47,3.67,3.67,0,0,0-2,1C406,104,396.78,114,387.87,129.71c-.36.62-.69,1.23-1,1.83-.1.2-.2.39-.31.58l-.65,1.22-.34.64c-.2.37-.39.75-.57,1.11l-.33.64c-.18.37-.36.72-.53,1.08-.1.21-.2.41-.29.61-.18.36-.34.73-.51,1.08l-.25.54-.52,1.19c-.06.13-.11.26-.17.38-.22.51-.43,1-.63,1.51l-12.68-7.2a198,198,0,0,1,3.3-19.84.3.3,0,0,1,0-.1c.12-.58.25-1.17.38-1.77,0-.1.05-.2.06-.3l.39-1.72c0-.15.07-.29.1-.43.13-.57.26-1.14.4-1.72,0-.16.08-.32.11-.48.15-.58.29-1.17.43-1.77l.12-.47c.15-.61.3-1.23.47-1.86a1.46,1.46,0,0,1,.05-.2c.51-2,1.05-4,1.64-6.15.09-.3.17-.6.25-.91.14-.48.29-1,.43-1.47s.23-.79.34-1.19l.42-1.39c.14-.45.27-.89.4-1.33l.42-1.36.45-1.44.42-1.33c.17-.51.33-1,.5-1.54l.42-1.29.58-1.68c.13-.4.26-.8.4-1.2.23-.64.45-1.29.68-1.93l.35-1c.35-1,.71-2,1.07-2.94a.17.17,0,0,0,0,0c2.18-5.9,4.57-11.77,7.11-17.45.47-1,.95-2.05,1.45-3.05L465,96.84c-.61,1-1.23,1.88-1.88,2.81-3.58,5.09-7.4,10.16-11.34,15,0,0,0,0,0,0q-1,1.23-2,2.43l-.68.82c-.44.52-.88,1.06-1.31,1.58l-.81.93c-.39.47-.78.94-1.18,1.39l-.83,1-1.14,1.31-.84.94c-.37.43-.75.85-1.13,1.27l-.81.9-1.14,1.24-.78.85q-.58.64-1.17,1.26l-.71.76-1.33,1.4-.53.55c-.6.63-1.21,1.25-1.8,1.86l-.43.43c-.45.47-.91.92-1.36,1.38l-.64.64-1.1,1.09c-.23.23-.46.46-.7.68s-.66.66-1,1-.47.45-.69.68l-1,.92-.67.65-.94.87-.65.61-.93.87c-.2.18-.4.37-.6.54l-1,.91-.47.42L420.13,148l-.1.09-1.36,1.19-.36.32-.93.79-.44.39-.76.65-.47.4-.68.56-.45.38c-.22.17-.42.35-.62.51l-.43.35-.57.47-.39.32-.53.42Zm22.83,29.08c-7.43,1-21.16-15.72-26.19-22.71h0l.4-.35.06,0c.25-.22.44-.41.6-.56h0l.2-.2v0l.14-.13h0v0l.09-.06.1-.07.14-.12c.21-.14.48-.35.81-.6.08-.06.17-.12.26-.2l.32-.24.29-.22.36-.29.34-.26.41-.32.37-.3.46-.37.43-.34.49-.4.48-.39.52-.42.53-.45c.19-.15.37-.29.55-.46l.59-.49.58-.48.63-.54.61-.52.74-.64.57-.49,1.33-1.18.56-.5.88-.79.64-.58c.29-.25.57-.51.86-.78l.69-.63.87-.81.73-.68.89-.83.76-.72.91-.88.78-.74,1-.93.77-.77,1-1,.77-.77,1.09-1.1.73-.75c.41-.4.81-.82,1.21-1.24l.66-.68c.58-.61,1.17-1.22,1.76-1.86l.13-.13,1.93-2.07.56-.61,1.39-1.52c.25-.27.48-.55.73-.82l1.25-1.4.8-.9,1.21-1.39.83-1c.39-.47.8-.93,1.2-1.41q.42-.48.84-1l.61-.72C449,133,444,165.91,438.55,180.19,437.6,182.69,436.29,184,434.53,184.24Z"/><path class="cls-4" d="M365.76,137.37c-8.57-.73-29.93-4-32.92-10.84-.71-1.63-.25-3.44,1.41-5.53,9.49-12,35.2-33.19,45.06-41.18l-.32.92-.4,1.18c-.21.61-.41,1.21-.62,1.81-.13.38-.25.77-.37,1.15-.21.6-.4,1.21-.6,1.81-.11.36-.23.73-.35,1.09-.19.63-.38,1.24-.58,1.85-.1.34-.2.66-.3,1-.21.69-.41,1.37-.62,2l-.22.73c-.27.92-.53,1.83-.79,2.73s-.49,1.77-.73,2.65c-.09.29-.16.57-.24.86-.15.57-.31,1.15-.46,1.71-.09.34-.17.67-.26,1l-.39,1.51c-.09.36-.17.71-.26,1s-.23.93-.34,1.38-.18.71-.26,1.06-.21.88-.31,1.31-.16.69-.24,1-.2.83-.29,1.25-.15.67-.23,1-.17.8-.26,1.19l-.21,1-.24,1.14c-.06.31-.13.63-.2.93s-.15.76-.22,1.14l-.18.85c-.07.4-.14.79-.22,1.17s-.09.49-.14.72c-.12.61-.22,1.19-.32,1.76,0,.23-.09.45-.12.67s-.13.7-.19,1l-.12.77c-.06.28-.1.57-.14.84s-.09.49-.13.73l-.12.77c0,.23-.07.47-.11.7s-.07.46-.1.69-.08.44-.1.66-.07.42-.1.63-.06.4-.08.61-.06.37-.08.56-.05.37-.08.56-.05.33-.07.5l-.06.49-.06.45c0,.15,0,.31-.05.44s0,.25,0,.38,0,.26-.05.38l0,.32c0,.11,0,.24,0,.34s0,.33,0,.47,0,.11,0,.17,0,.15,0,.21a1,1,0,0,1,0,.12.48.48,0,0,1,0,.12h0c0,.05,0,.11,0,.18v0l-.06.26a.13.13,0,0,0,0,.06c0,.1,0,.2-.07.31s0,0,0,0-.05.26-.08.41a.43.43,0,0,1,0,.11Q365.8,137.1,365.76,137.37Z"/><path class="cls-4" d="M434.53,184.24c-7.43,1-21.16-15.72-26.19-22.71h0l.4-.35.06,0c.25-.22.44-.41.6-.56h0l.2-.2v0l.14-.13h0v0l.09-.06.1-.07.14-.12c.21-.14.48-.35.81-.6.08-.06.17-.12.26-.2l.32-.24.29-.22.36-.29.34-.26.41-.32.37-.3.46-.37.43-.34.49-.4.48-.39.52-.42.53-.45c.19-.15.37-.29.55-.46l.59-.49.58-.48.63-.54.61-.52.74-.64.57-.49,1.33-1.18.56-.5.88-.79.64-.58c.29-.25.57-.51.86-.78l.69-.63.87-.81.73-.68.89-.83.76-.72.91-.88.78-.74,1-.93.77-.77,1-1,.77-.77,1.09-1.1.73-.75c.41-.4.81-.82,1.21-1.24l.66-.68c.58-.61,1.17-1.22,1.76-1.86l.13-.13,1.93-2.07.56-.61,1.39-1.52c.25-.27.48-.55.73-.82l1.25-1.4.8-.9,1.21-1.39.83-1c.39-.47.8-.93,1.2-1.41q.42-.48.84-1l.61-.72C449,133,444,165.91,438.55,180.19,437.6,182.69,436.29,184,434.53,184.24Z"/><path class="cls-5" d="M406.46,159.41l-.17.14-.31.26,0,0c-1.35,1.11-3.79,3-7.89,5.94a6,6,0,0,1-6.39.32L370.39,154a6,6,0,0,1-3-5.66c.39-5.06.8-8.17,1.07-9.87,0-.23.07-.43.1-.61l12.19,6.92c-.35,1-.64,2-.88,2.9l0,.15c-.07.25-.13.49-.18.73a2.25,2.25,0,0,0,0,.22c-.05.21-.09.42-.13.61a2.34,2.34,0,0,0,0,.26c0,.18-.07.36-.1.53s0,.18,0,.27-.05.32-.08.48a2.11,2.11,0,0,0,0,.26c0,.15,0,.3-.06.44s0,.18,0,.26l0,.4a2.09,2.09,0,0,1,0,.25c0,.13,0,.26,0,.38a2,2,0,0,0,0,.24c0,.11,0,.23,0,.34a1.55,1.55,0,0,0,0,.22c0,.11,0,.22,0,.33a1.49,1.49,0,0,1,0,.21l0,.31c0,.06,0,.12,0,.19s0,.19.05.28a1.13,1.13,0,0,0,0,.18,2,2,0,0,0,0,.26,1,1,0,0,0,0,.17l.06.25a.83.83,0,0,1,0,.15c0,.08.05.15.08.22a.57.57,0,0,0,0,.14l.08.21.05.13.09.2.06.11a1,1,0,0,0,.09.18l0,.11a1.4,1.4,0,0,1,.1.16l.06.09a1.3,1.3,0,0,1,.1.15l.06.08.1.14s0,.05.06.07l.11.12.06.07.11.11,0,0a.5.5,0,0,0,.11.1l.05,0,.11.09,0,0,.1.07.05,0,.1.07,0,0,.13.08.12.06.13.08h0l0,0,.09,0,.05,0a.53.53,0,0,1,.1.06h.05l.12,0,.05,0,.13,0,.07,0,.13,0,.08,0,.14,0,.09,0,.14,0,.12,0,.13,0h.86l.21,0h.12l.23,0,.11,0,.25-.05.12,0,.27-.07.1,0,.3-.09.1,0,.32-.11.11-.05c.11,0,.22-.1.33-.15l.1,0,.35-.17.11-.06.37-.2.11-.07.38-.22.11-.08c.14-.08.26-.17.4-.26l.12-.08.4-.28.14-.11.4-.3.15-.13c.14-.1.28-.22.41-.33l.17-.15c.14-.11.27-.23.4-.35l.2-.17.4-.38.21-.2.41-.39.22-.23.4-.42.26-.27.39-.43.28-.31c.13-.14.26-.3.39-.45l.28-.31Z"/><path class="cls-4" d="M401.11,137.23q-1.64,2.88-3.22,5.37a74.51,74.51,0,0,1-5.06,7.17c-5.45,6.73-8.72,7.26-9.64,6.88l0-.08-.35-.09c-.8-.54-2.1-3.6.93-11.82h0a93.26,93.26,0,0,1,6.51-13.54C399.53,114.9,409.1,105,414,100.48a.75.75,0,0,1,.92-.11.76.76,0,0,1,.39.84C413.94,107.71,410.31,121,401.11,137.23Z"/><path class="cls-6" d="M465,96.84c-.61,1-1.23,1.88-1.88,2.81-3.58,5.09-7.4,10.16-11.34,15,0,0,0,0,0,0q-1,1.23-2,2.43l-.68.82c-.44.52-.88,1.06-1.31,1.58l-.81.93c-.39.47-.78.94-1.18,1.39l-.83,1-1.14,1.31-.84.94c-.37.43-.75.85-1.13,1.27l-.81.9-1.14,1.24-.78.85q-.58.64-1.17,1.26l-.71.76-1.33,1.4-.53.55c-.6.63-1.21,1.25-1.8,1.86l-.43.43c-.45.47-.91.92-1.36,1.38l-.64.64-1.1,1.09c-.23.23-.46.46-.7.68s-.66.66-1,1-.47.45-.69.68l-1,.92-.67.65-.94.87-.65.61-.93.87c-.2.18-.4.37-.6.54l-1,.91-.47.42L420.13,148l-.1.09-1.36,1.19-.36.32-.93.79-.44.39-.76.65-.47.4-.68.56-.45.38c-.22.17-.42.35-.62.51l-.43.35-.57.47-.39.32-.53.42-.34.28-.52.4-.27.22-.58.45c-.14.12-.27.21-.4.31l-.3.24-.32.24-.19.14-.3.23-.07.06-12.69-7.2c.32-.43.65-.85,1-1.29l.34-.47c.22-.31.44-.61.65-.93l.4-.57.61-.91c.13-.2.27-.42.41-.62l.61-1c.14-.22.28-.43.41-.65s.43-.68.64-1,.27-.42.4-.64c.23-.38.47-.78.7-1.18.11-.19.23-.37.34-.57l1.05-1.81c8.92-15.72,12.8-28.71,14.48-36.84a3.26,3.26,0,0,0,.07-.87,3.6,3.6,0,0,0-.3-1.36s0,0,0,0a2.55,2.55,0,0,0-.25-.46L417.5,99a3.63,3.63,0,0,0-.71-.76,1.37,1.37,0,0,0-.2-.13,2.4,2.4,0,0,0-.29-.19,3.6,3.6,0,0,0-2.2-.47,3.67,3.67,0,0,0-2,1C406,104,396.78,114,387.87,129.71c-.36.62-.69,1.23-1,1.83-.1.2-.2.39-.31.58l-.65,1.22-.34.64c-.2.37-.39.75-.57,1.11l-.33.64c-.18.37-.36.72-.53,1.08-.1.21-.2.41-.29.61-.18.36-.34.73-.51,1.08l-.25.54-.52,1.19c-.06.13-.11.26-.17.38-.22.51-.43,1-.63,1.51l-12.68-7.2a198,198,0,0,1,3.3-19.84.3.3,0,0,1,0-.1c.12-.58.25-1.17.38-1.77,0-.1.05-.2.06-.3l.39-1.72c0-.15.07-.29.1-.43.13-.57.26-1.14.4-1.72,0-.16.08-.32.11-.48.15-.58.29-1.17.43-1.77l.12-.47c.15-.61.3-1.23.47-1.86a1.46,1.46,0,0,1,.05-.2c.51-2,1.05-4,1.64-6.15.09-.3.17-.6.25-.91.14-.48.29-1,.43-1.47s.23-.79.34-1.19l.42-1.39c.14-.45.27-.89.4-1.33l.42-1.36.45-1.44.42-1.33c.17-.51.33-1,.5-1.54l.42-1.29.58-1.68c.13-.4.26-.8.4-1.2.23-.64.45-1.29.68-1.93l.35-1c.35-1,.71-2,1.07-2.94a.17.17,0,0,0,0,0c2.18-5.9,4.57-11.77,7.11-17.45.47-1,.95-2.05,1.45-3.05Z"/><path class="cls-7" d="M477.75,20.63c-2.36-10.44-5.68-15.57-8-16.89s-8.44-1.55-18.61,1.79c-18.48,6.07-43.83,22-57.59,47.49l73,41.41C481.35,69.54,482,39.61,477.75,20.63ZM436.54,62.25a19.56,19.56,0,1,1,26.67-7.37A19.59,19.59,0,0,1,436.54,62.25Z"/><path class="cls-3" d="M455.85,28.22a19.56,19.56,0,1,0,7.36,26.66A19.58,19.58,0,0,0,455.85,28.22ZM437.94,59.78a16.72,16.72,0,1,1,22.8-6.3A16.74,16.74,0,0,1,437.94,59.78Z"/><path class="cls-5" d="M454.45,30.69a16.72,16.72,0,1,0,6.29,22.79A16.73,16.73,0,0,0,454.45,30.69ZM451,36.79a9.72,9.72,0,0,0-14.32,6.53A1.42,1.42,0,0,1,435,44.43a1.26,1.26,0,0,1-.42-.16,1.41,1.41,0,0,1-.69-1.51A12.39,12.39,0,0,1,435.28,39a12.56,12.56,0,0,1,17.11-4.72,1.42,1.42,0,0,1-1.4,2.47Z"/><path class="cls-3" d="M452.92,36.25a1.42,1.42,0,0,1-1.93.54,9.72,9.72,0,0,0-14.32,6.53A1.42,1.42,0,0,1,435,44.43a1.26,1.26,0,0,1-.42-.16,1.41,1.41,0,0,1-.69-1.51A12.39,12.39,0,0,1,435.28,39a12.56,12.56,0,0,1,17.11-4.72A1.41,1.41,0,0,1,452.92,36.25Z"/><path class="cls-4" d="M408.25,149.21h0a2.86,2.86,0,0,0,3.53-.29c5.81-5.48,25.7-24.66,38.93-42.84a7.55,7.55,0,0,0-2.34-11h0a7.53,7.53,0,0,0-10.29,2.71c-6.27,10.72-19.28,32.38-30.53,47.33A2.85,2.85,0,0,0,408.25,149.21Z"/><path class="cls-8" d="M395,158.44,393.19,160a2.06,2.06,0,0,0,.34,3.33h0a2.07,2.07,0,0,0,2.33-.19l1.83-1.49a2.11,2.11,0,0,0-.29-3.47h0A2.12,2.12,0,0,0,395,158.44Z"/><path class="cls-9" d="M470,12.62c1.07,4,8.72,35.05-4.67,66.54a5.06,5.06,0,0,1-7.24,2.35h0a5.06,5.06,0,0,1-1.48-7.3c6.07-8.45,17.34-29.1,11.46-60.37a1.39,1.39,0,0,1,1.36-1.65h0A.58.58,0,0,1,470,12.62Z"/><path class="cls-10" d="M375.9,361.05a28.62,28.62,0,0,0-25-26.88,32.77,32.77,0,0,1,9.82-2,33.2,33.2,0,1,1-19.83,58.35,28.18,28.18,0,0,0,8,.69A28.64,28.64,0,0,0,375.9,361.05Z"/><path class="cls-10" d="M216,374.24a40.37,40.37,0,0,0-13.57,50,46.82,46.82,0,1,1,74.89-29.89A40.39,40.39,0,0,0,216,374.24Z"/><path class="cls-10" d="M288,258.54a21.61,21.61,0,0,0-1,27.72,25.07,25.07,0,1,1,35.4-24.72,21.62,21.62,0,0,0-34.42-3Z"/><path class="cls-10" d="M305.35,520.58a27.93,27.93,0,0,0,24.08-26.53,32.38,32.38,0,1,1-55.54-5.13,27.94,27.94,0,0,0,31.46,31.66Z"/></g></g></svg>