<svg xmlns="http://www.w3.org/2000/svg" viewBox="0 0 97.69 97.69"><defs><style>.cls-1{fill:#f4ce2c;}.cls-2{fill:#424242;}.cls-11,.cls-12,.cls-2,.cls-3,.cls-4{fill-rule:evenodd;}.cls-3{fill:#fff;}.cls-4,.cls-8{fill:#eaad42;}.cls-5{fill:#c0daf9;}.cls-11,.cls-6{fill:#8bb6ea;}.cls-7{fill:#82d873;}.cls-12,.cls-9{fill:#f9dea7;}.cls-10{fill:#316edb;}</style></defs><title>Asset 10</title><g id="Layer_2" data-name="Layer 2"><g id="Layer_1-2" data-name="Layer 1"><circle class="cls-1" cx="48.84" cy="48.84" r="48.84"/><path class="cls-2" d="M62.83,11.54H35.29a5.82,5.82,0,0,0-5.82,5.81V80a5.83,5.83,0,0,0,5.82,5.82H62.83A5.82,5.82,0,0,0,68.64,80V17.35A5.81,5.81,0,0,0,62.83,11.54ZM66.9,80A4.07,4.07,0,0,1,62.83,84H35.29A4.07,4.07,0,0,1,31.22,80V17.35a4.07,4.07,0,0,1,4.07-4.06h5.65V15.2a1.12,1.12,0,0,0,1.11,1.12h14a1.12,1.12,0,0,0,1.12-1.12V13.29h5.65a4.07,4.07,0,0,1,4.07,4.06Z"/><path class="cls-3" d="M66.9,17.35V80A4.07,4.07,0,0,1,62.83,84H35.29A4.07,4.07,0,0,1,31.22,80V17.35a4.07,4.07,0,0,1,4.07-4.06h5.65V15.2a1.12,1.12,0,0,0,1.11,1.12h14a1.12,1.12,0,0,0,1.12-1.12V13.29h5.65A4.07,4.07,0,0,1,66.9,17.35Z"/><path class="cls-4" d="M29.72,28.06V35a3.62,3.62,0,0,1-3.63,3.61H19.16A3.62,3.62,0,0,1,15.54,35V28.06a3.62,3.62,0,0,1,3.62-3.62h6.93A3.62,3.62,0,0,1,29.72,28.06Z"/><rect class="cls-5" x="33.95" y="21.4" width="5.57" height="5.57" rx="1.42" ry="1.42"/><rect class="cls-5" x="42.16" y="21.4" width="5.57" height="5.57" rx="1.42" ry="1.42"/><rect class="cls-5" x="50.38" y="21.4" width="5.57" height="5.57" rx="1.42" ry="1.42"/><rect class="cls-5" x="58.6" y="21.4" width="5.57" height="5.57" rx="1.42" ry="1.42"/><rect class="cls-5" x="33.95" y="30.52" width="5.57" height="5.57" rx="1.42" ry="1.42"/><rect class="cls-6" x="42.16" y="30.52" width="5.57" height="5.57" rx="1.42" ry="1.42"/><rect class="cls-7" x="50.38" y="30.52" width="5.57" height="5.57" rx="1.42" ry="1.42"/><rect class="cls-5" x="58.6" y="30.52" width="5.57" height="5.57" rx="1.42" ry="1.42"/><rect class="cls-5" x="33.95" y="39.63" width="5.57" height="5.57" rx="1.42" ry="1.42"/><rect class="cls-7" x="42.16" y="39.63" width="5.57" height="5.57" rx="1.42" ry="1.42"/><rect class="cls-8" x="54.38" y="39.63" width="5.57" height="5.57" rx="1.42" ry="1.42"/><rect class="cls-5" x="58.6" y="39.63" width="5.57" height="5.57" rx="1.42" ry="1.42"/><rect class="cls-5" x="33.95" y="48.74" width="5.57" height="5.57" rx="1.42" ry="1.42"/><rect class="cls-9" x="42.16" y="48.74" width="5.57" height="5.57" rx="1.42" ry="1.42"/><rect class="cls-6" x="50.38" y="48.74" width="5.57" height="5.57" rx="1.42" ry="1.42"/><rect class="cls-5" x="58.6" y="48.74" width="5.57" height="5.57" rx="1.42" ry="1.42"/><rect class="cls-5" x="33.95" y="57.85" width="5.57" height="5.57" rx="1.42" ry="1.42"/><rect class="cls-9" x="42.16" y="57.85" width="5.57" height="5.57" rx="1.42" ry="1.42"/><rect class="cls-10" x="33.95" y="75.71" width="5.57" height="5.57" rx="1.42" ry="1.42"/><rect class="cls-10" x="42.16" y="75.71" width="5.57" height="5.57" rx="1.42" ry="1.42"/><rect class="cls-10" x="50.38" y="75.71" width="5.57" height="5.57" rx="1.42" ry="1.42"/><rect class="cls-10" x="58.6" y="75.71" width="5.57" height="5.57" rx="1.42" ry="1.42"/><rect class="cls-5" x="23.26" y="58.4" width="4.92" height="4.92" rx="1.26" ry="1.26"/><path class="cls-11" d="M23.13,46.91v4.41a2.3,2.3,0,0,1-2.3,2.3H16.42a2.29,2.29,0,0,1-2.29-2.3V46.91a2.29,2.29,0,0,1,2.29-2.3h4.41A2.3,2.3,0,0,1,23.13,46.91Z"/><path class="cls-6" d="M72.69,33.8h2.67a1.4,1.4,0,0,1,1.4,1.4v2.67a1.39,1.39,0,0,1-1.39,1.39H72.69a1.4,1.4,0,0,1-1.4-1.4V35.2A1.4,1.4,0,0,1,72.69,33.8Z"/><path class="cls-12" d="M80.3,24.7v3.47A1.81,1.81,0,0,1,78.49,30H75a1.8,1.8,0,0,1-1.8-1.8V24.7A1.8,1.8,0,0,1,75,22.89h3.47A1.81,1.81,0,0,1,80.3,24.7Z"/></g></g></svg>