<svg xmlns="http://www.w3.org/2000/svg" viewBox="0 0 20.98 43.74"><defs><style>.cls-1,.cls-2{fill:#fff;}.cls-1{fill-rule:evenodd;}</style></defs><title>Asset 7</title><g id="Layer_2" data-name="Layer 2"><g id="Layer_1-2" data-name="Layer 1"><path class="cls-1" d="M18.08,0H2.9A2.9,2.9,0,0,0,0,2.9V40.84a2.9,2.9,0,0,0,2.9,2.9H18.08a2.9,2.9,0,0,0,2.9-2.9V2.9A2.9,2.9,0,0,0,18.08,0Zm1.86,40.84a1.86,1.86,0,0,1-1.86,1.86H2.9A1.86,1.86,0,0,1,1,40.84V2.9A1.87,1.87,0,0,1,2.9,1H5.57v.5A1.22,1.22,0,0,0,6.79,2.77h7.4a1.23,1.23,0,0,0,1.23-1.23V1h2.66A1.87,1.87,0,0,1,19.94,2.9Z"/><rect class="cls-2" x="7.11" y="7.43" width="6.76" height="6.76" rx="0.53" ry="0.53"/><rect class="cls-2" x="3.91" y="17.81" width="13.15" height="2" rx="0.49" ry="0.49"/><rect class="cls-2" x="3.91" y="21.59" width="13.15" height="2" rx="0.49" ry="0.49"/><rect class="cls-2" x="3.91" y="25.37" width="9.47" height="2" rx="0.49" ry="0.49"/><rect class="cls-2" x="3.91" y="29.16" width="13.15" height="9.03" rx="0.49" ry="0.49"/></g></g></svg>