<svg xmlns="http://www.w3.org/2000/svg" viewBox="0 0 381.45 270.23"><defs><style>.cls-1{fill:#f4f4f4;}.cls-2{fill:#b2d2f9;}.cls-3{fill:#e5a930;}.cls-4{fill:#f24949;}.cls-5,.cls-6{fill:#232323;}.cls-6{font-size:13px;font-family:Poppins-Bold, Poppins;font-weight:700;}.cls-7{fill:#96bce2;}</style></defs><title>Asset 12</title><g id="Layer_2" data-name="Layer 2"><g id="Layer_1-2" data-name="Layer 1"><path class="cls-1" d="M164.17,266.72c87.72-17.1,62.27-64,145.29-58.07s68.8-71.52-24.82-123.55S82.77,15.79,25,77.85C-32.6,139.65,16.49,295.5,164.17,266.72Z"/><path class="cls-2" d="M47.11,21.79h21a11.7,11.7,0,0,1,11.7,11.7V234.13a0,0,0,0,1,0,0H35.41a0,0,0,0,1,0,0V33.49A11.7,11.7,0,0,1,47.11,21.79Z"/><path class="cls-2" d="M113.67,74.31h21A11.7,11.7,0,0,1,146.37,86V234.13a0,0,0,0,1,0,0H102a0,0,0,0,1,0,0V86A11.7,11.7,0,0,1,113.67,74.31Z"/><path class="cls-2" d="M180.23,97.14h21a11.7,11.7,0,0,1,11.7,11.7V234.13a0,0,0,0,1,0,0H168.52a0,0,0,0,1,0,0V108.85A11.7,11.7,0,0,1,180.23,97.14Z"/><path class="cls-2" d="M246.79,158h21a11.7,11.7,0,0,1,11.7,11.7v64.46a0,0,0,0,1,0,0H235.08a0,0,0,0,1,0,0V169.67A11.7,11.7,0,0,1,246.79,158Z"/><path class="cls-2" d="M313.34,208.56h21a11.7,11.7,0,0,1,11.7,11.7v13.86a0,0,0,0,1,0,0H301.64a0,0,0,0,1,0,0V220.26A11.7,11.7,0,0,1,313.34,208.56Z"/><rect class="cls-3" x="1.5" y="234.13" width="378.45" height="15.12" rx="7.56" ry="7.56"/><path class="cls-4" d="M357.34,170.06l-14.23-45.18L335,139.49,109.39,16.86a1.57,1.57,0,0,0-1.63,2.69L321.9,163.24,314,177.61Z"/><path class="cls-5" d="M372.39,232.63H347.54V220.26a13.21,13.21,0,0,0-13.2-13.2h-21a13.21,13.21,0,0,0-13.2,13.2v12.37H281v-63a13.23,13.23,0,0,0-13.21-13.21h-21a13.22,13.22,0,0,0-13.21,13.21v63H214.43V108.85a13.22,13.22,0,0,0-13.2-13.21h-21A13.22,13.22,0,0,0,167,108.85V232.63H147.87V86a13.21,13.21,0,0,0-13.2-13.2h-21A13.21,13.21,0,0,0,100.47,86V232.63H81.32V33.49a13.22,13.22,0,0,0-13.21-13.2h-21a13.21,13.21,0,0,0-13.2,13.2V232.63H9.06a9.06,9.06,0,0,0,0,18.12H372.39a9.06,9.06,0,0,0,0-18.12Zm-69.25-12.37a10.22,10.22,0,0,1,10.2-10.2h21a10.21,10.21,0,0,1,10.2,10.2v12.37h-41.4Zm-66.56-50.59a10.22,10.22,0,0,1,10.21-10.21h21A10.22,10.22,0,0,1,278,169.67v63H236.58ZM170,108.85a10.22,10.22,0,0,1,10.21-10.21h21a10.22,10.22,0,0,1,10.2,10.21V232.63H170ZM103.47,86a10.2,10.2,0,0,1,10.2-10.2h21A10.2,10.2,0,0,1,144.87,86V232.63h-41.4ZM36.91,33.49a10.21,10.21,0,0,1,10.2-10.2h21a10.21,10.21,0,0,1,10.21,10.2V232.63H36.91ZM372.39,247.75H9.06a6.06,6.06,0,0,1,0-12.12H372.39a6.06,6.06,0,0,1,0,12.12Z"/><path class="cls-5" d="M311.13,179.62l48.16-8.37-15.8-50.16-9.05,16.37L81.85.19a1.56,1.56,0,0,0-2.09.57h0a1.56,1.56,0,0,0,.46,2.11l239.7,160.85ZM107.36,17.47,335.62,141.52l7.11-12.85,12.67,40.21-38.62,6.72,7.1-12.84Z"/><text class="cls-6" transform="matrix(0.88, 0.47, -0.47, 0.88, 187.35, 45.42)">Resourcing Course</text><rect class="cls-7" x="45.16" y="31.36" width="9.87" height="193.19" rx="4.94" ry="4.94"/><rect class="cls-7" x="111.41" y="83.39" width="9.87" height="141.66" rx="4.94" ry="4.94"/><rect class="cls-7" x="177.66" y="106.39" width="9.87" height="117.11" rx="4.94" ry="4.94"/><rect class="cls-7" x="243.91" y="167.49" width="9.87" height="56" rx="4.94" ry="4.94"/></g></g></svg>