<svg xmlns="http://www.w3.org/2000/svg" viewBox="0 0 121.66 121.66"><defs><style>.cls-1,.cls-6,.cls-8{fill:#fff;}.cls-1{opacity:0;}.cls-2{fill:#f4ce2c;}.cls-3{fill:#c0daf9;}.cls-4{fill:#f9dea7;}.cls-5{fill:#ef4b4b;}.cls-6{fill-rule:evenodd;}.cls-7{fill:#424242;}.cls-9{fill:#316edb;}.cls-10{fill:#3fb232;}</style></defs><title>Asset 17</title><g id="Layer_2" data-name="Layer 2"><g id="Layer_1-2" data-name="Layer 1"><rect class="cls-1" width="121.66" height="121.66"/><circle class="cls-2" cx="61.84" cy="60.83" r="48.84"/><rect class="cls-3" x="10.98" y="69.8" width="17.08" height="2.92" rx="0.89" ry="0.89"/><rect class="cls-4" x="10.98" y="75.65" width="6.54" height="2.92" rx="0.89" ry="0.89"/><rect class="cls-3" x="10.98" y="55.39" width="16.37" height="11.49" rx="0.89" ry="0.89"/><circle class="cls-5" cx="35.46" cy="43.69" r="1.34"/><path class="cls-6" d="M103.28,42.21A13.6,13.6,0,0,1,90.54,55.78v-13a1.28,1.28,0,0,0-1.29-1.28H76.11a13.59,13.59,0,0,1,27.17.66Z"/><path class="cls-7" d="M90.44,38.58H33.24a2.87,2.87,0,0,0-2.87,2.87V80.2a2.87,2.87,0,0,0,2.87,2.87h57.2a2.87,2.87,0,0,0,2.87-2.87V41.45A2.87,2.87,0,0,0,90.44,38.58ZM91.81,80.2a1.37,1.37,0,0,1-1.37,1.37H33.24a1.37,1.37,0,0,1-1.37-1.37V41.45a1.37,1.37,0,0,1,1.37-1.37h57.2a1.37,1.37,0,0,1,1.37,1.37Z"/><path class="cls-8" d="M91.81,41.45V80.2a1.37,1.37,0,0,1-1.37,1.37H33.24a1.37,1.37,0,0,1-1.37-1.37V41.45a1.37,1.37,0,0,1,1.37-1.37h57.2A1.37,1.37,0,0,1,91.81,41.45Z"/><path class="cls-4" d="M90.54,42.83v13c-.28,0-.56,0-.85,0a13.6,13.6,0,0,1-13.6-13.6c0-.22,0-.44,0-.66H89.25A1.28,1.28,0,0,1,90.54,42.83Z"/><rect class="cls-4" x="74.79" y="63.96" width="12.57" height="11.29" rx="0.89" ry="0.89"/><rect class="cls-3" x="36.31" y="63.96" width="34.17" height="2.92" rx="0.89" ry="0.89"/><rect class="cls-3" x="36.31" y="69.8" width="34.17" height="5.44" rx="0.89" ry="0.89"/><rect class="cls-9" x="36.31" y="48.72" width="51.05" height="11.31" rx="0.89" ry="0.89"/><circle class="cls-2" cx="40.65" cy="43.69" r="1.34"/><circle class="cls-10" cx="45.84" cy="43.69" r="1.34"/></g></g></svg>