<svg xmlns="http://www.w3.org/2000/svg" viewBox="0 0 121.66 121.66"><defs><style>.cls-1,.cls-7{fill:#fff;}.cls-1{opacity:0;}.cls-2{fill:#c0daf9;}.cls-3{fill:#f4ce2c;}.cls-4,.cls-6{fill:#f9dea7;}.cls-4{fill-rule:evenodd;}.cls-5{fill:#424242;}.cls-8{fill:#316edb;}</style></defs><title>Asset 18</title><g id="Layer_2" data-name="Layer 2"><g id="Layer_1-2" data-name="Layer 1"><rect class="cls-1" width="121.66" height="121.66"/><rect class="cls-2" x="69.59" y="56.02" width="17.08" height="2.92" rx="0.89" ry="0.89"/><rect class="cls-2" x="69.59" y="61.91" width="10.28" height="2.92" rx="0.89" ry="0.89"/><circle class="cls-3" cx="60.83" cy="60.83" r="48.84"/><path class="cls-4" d="M54.93,72.46l-3.58,9.29H41.93a.89.89,0,0,1-.89-.89V60.16a.88.88,0,0,1,.89-.88H48c0,.17,0,.34,0,.52A15,15,0,0,0,54.93,72.46Z"/><path class="cls-4" d="M63.51,74.82v6a.89.89,0,0,1-.88.89H54.55l3.06-7.93a15.05,15.05,0,0,0,5.43,1Z"/><path class="cls-5" d="M82.43,74.92a4.22,4.22,0,0,0-2.42.77L72.1,67.78a12,12,0,0,0,0-16l6.2-6.21a4.25,4.25,0,1,0-1.82-3.48,4.19,4.19,0,0,0,.76,2.42L71,50.72a11.8,11.8,0,0,0-9.87-2.84L58.83,36.52a4.23,4.23,0,1,0-1.57.31h.1L59.68,48.2a12.11,12.11,0,0,0-8.4,8.89L37.55,53.48c0-.11,0-.22,0-.33a4.26,4.26,0,1,0-.4,1.79L51,58.58a12.09,12.09,0,0,0,6.28,11.84L51.26,86.09a4.28,4.28,0,1,0,1.4.55l6-15.59A12,12,0,0,0,71,68.84L79,76.75a4.24,4.24,0,1,0,3.48-1.83ZM80.7,39.34A2.75,2.75,0,1,1,78,42.09,2.75,2.75,0,0,1,80.7,39.34Zm-23.44-4A2.75,2.75,0,1,1,60,32.58,2.75,2.75,0,0,1,57.26,35.33ZM33.33,55.9a2.75,2.75,0,1,1,2.75-2.75A2.75,2.75,0,0,1,33.33,55.9ZM53.2,90.26a2.75,2.75,0,1,1-2.75-2.75A2.75,2.75,0,0,1,53.2,90.26Zm9.85-19.88A10.59,10.59,0,1,1,73.64,59.79,10.6,10.6,0,0,1,63.05,70.38ZM82.43,81.92a2.75,2.75,0,1,1,2.75-2.75A2.75,2.75,0,0,1,82.43,81.92Z"/><circle class="cls-6" cx="80.7" cy="42.09" r="2.75"/><path class="cls-7" d="M73.64,59.79A10.59,10.59,0,1,1,63.05,49.21,10.6,10.6,0,0,1,73.64,59.79Z"/><ellipse class="cls-8" cx="59.53" cy="56.27" rx="5.33" ry="3.23" transform="translate(-22.35 58.57) rotate(-45)"/><circle class="cls-2" cx="82.43" cy="79.17" r="2.75"/><circle class="cls-6" cx="50.45" cy="90.26" r="2.75"/><circle class="cls-2" cx="33.33" cy="53.15" r="2.75"/><circle class="cls-2" cx="57.26" cy="32.58" r="2.75"/><circle class="cls-2" cx="50.45" cy="45.07" r="4.93"/></g></g></svg>