<svg xmlns="http://www.w3.org/2000/svg" viewBox="0 0 121.66 121.66"><defs><style>.cls-1,.cls-4{fill:#fff;}.cls-1{opacity:0;}.cls-2{fill:#f4ce2c;}.cls-3{fill:#424242;}.cls-11,.cls-12,.cls-3,.cls-4{fill-rule:evenodd;}.cls-5{fill:#c0daf9;}.cls-11,.cls-6{fill:#8bb6ea;}.cls-7{fill:#82d873;}.cls-8{fill:#eaad42;}.cls-12,.cls-9{fill:#f9dea7;}.cls-10{fill:#316edb;}</style></defs><title>Asset 16</title><g id="Layer_2" data-name="Layer 2"><g id="Layer_1-2" data-name="Layer 1"><rect class="cls-1" width="121.66" height="121.66"/><circle class="cls-2" cx="60.83" cy="60.83" r="48.84"/><path class="cls-3" d="M74.81,23.53H47.27a5.81,5.81,0,0,0-5.81,5.81v62.6a5.81,5.81,0,0,0,5.81,5.81H74.81a5.82,5.82,0,0,0,5.82-5.81V29.34A5.82,5.82,0,0,0,74.81,23.53Zm4.07,68.41A4.07,4.07,0,0,1,74.81,96H47.27a4.06,4.06,0,0,1-4.06-4.06V29.34a4.07,4.07,0,0,1,4.06-4.07h5.65v1.91A1.12,1.12,0,0,0,54,28.3h14a1.12,1.12,0,0,0,1.12-1.12V25.27h5.64a4.07,4.07,0,0,1,4.07,4.07Z"/><path class="cls-4" d="M78.88,29.34v62.6A4.07,4.07,0,0,1,74.81,96H47.27a4.06,4.06,0,0,1-4.06-4.06V29.34a4.07,4.07,0,0,1,4.06-4.07h5.65v1.91A1.12,1.12,0,0,0,54,28.3h14a1.12,1.12,0,0,0,1.12-1.12V25.27h5.64A4.07,4.07,0,0,1,78.88,29.34Z"/><path class="cls-4" d="M33.2,57.75v5.49a2.86,2.86,0,0,1-2.87,2.86H24.84A2.85,2.85,0,0,1,22,63.24V57.75a2.86,2.86,0,0,1,2.86-2.87h5.49A2.86,2.86,0,0,1,33.2,57.75Z"/><rect class="cls-5" x="45.93" y="33.39" width="5.57" height="5.57" rx="1.42" ry="1.42"/><rect class="cls-5" x="54.15" y="33.39" width="5.57" height="5.57" rx="1.42" ry="1.42"/><rect class="cls-5" x="62.37" y="33.39" width="5.57" height="5.57" rx="1.42" ry="1.42"/><rect class="cls-5" x="70.59" y="33.39" width="5.57" height="5.57" rx="1.42" ry="1.42"/><rect class="cls-5" x="45.93" y="42.5" width="5.57" height="5.57" rx="1.42" ry="1.42"/><rect class="cls-6" x="54.15" y="42.5" width="5.57" height="5.57" rx="1.42" ry="1.42"/><rect class="cls-7" x="62.37" y="42.5" width="5.57" height="5.57" rx="1.42" ry="1.42"/><rect class="cls-5" x="70.59" y="42.5" width="5.57" height="5.57" rx="1.42" ry="1.42"/><rect class="cls-5" x="45.93" y="51.61" width="5.57" height="5.57" rx="1.42" ry="1.42"/><rect class="cls-7" x="54.15" y="51.61" width="5.57" height="5.57" rx="1.42" ry="1.42"/><rect class="cls-8" x="62.37" y="51.61" width="5.57" height="5.57" rx="1.42" ry="1.42"/><rect class="cls-5" x="70.59" y="51.61" width="5.57" height="5.57" rx="1.42" ry="1.42"/><rect class="cls-5" x="45.93" y="60.72" width="5.57" height="5.57" rx="1.42" ry="1.42"/><rect class="cls-9" x="54.15" y="60.72" width="5.57" height="5.57" rx="1.42" ry="1.42"/><rect class="cls-6" x="62.37" y="60.72" width="5.57" height="5.57" rx="1.42" ry="1.42"/><rect class="cls-5" x="70.59" y="60.72" width="5.57" height="5.57" rx="1.42" ry="1.42"/><rect class="cls-5" x="45.93" y="69.84" width="5.57" height="5.57" rx="1.42" ry="1.42"/><rect class="cls-9" x="54.15" y="69.84" width="5.57" height="5.57" rx="1.42" ry="1.42"/><rect class="cls-10" x="45.93" y="87.7" width="5.57" height="5.57" rx="1.42" ry="1.42"/><rect class="cls-10" x="54.15" y="87.7" width="5.57" height="5.57" rx="1.42" ry="1.42"/><rect class="cls-10" x="62.37" y="87.7" width="5.57" height="5.57" rx="1.42" ry="1.42"/><rect class="cls-10" x="70.59" y="87.7" width="5.57" height="5.57" rx="1.42" ry="1.42"/><rect class="cls-5" x="32.78" y="85.89" width="4.92" height="4.92" rx="1.26" ry="1.26"/><path class="cls-11" d="M35.12,74.41v4.4a2.3,2.3,0,0,1-2.3,2.3H28.41a2.3,2.3,0,0,1-2.3-2.3v-4.4a2.3,2.3,0,0,1,2.3-2.31h4.41A2.3,2.3,0,0,1,35.12,74.41Z"/><path class="cls-6" d="M84.68,45.79h2.67a1.39,1.39,0,0,1,1.39,1.39v2.68a1.39,1.39,0,0,1-1.39,1.39H84.68a1.39,1.39,0,0,1-1.39-1.39V47.18A1.4,1.4,0,0,1,84.68,45.79Z"/><path class="cls-12" d="M97.29,36.68v3.47A1.81,1.81,0,0,1,95.48,42H92a1.81,1.81,0,0,1-1.81-1.81V36.68A1.81,1.81,0,0,1,92,34.87h3.47A1.81,1.81,0,0,1,97.29,36.68Z"/></g></g></svg>