<svg xmlns="http://www.w3.org/2000/svg" viewBox="0 0 395.06 246.58"><defs><style>.cls-1{fill:#f4f4f4;}.cls-2{fill:#b2d2f9;}.cls-3{fill:#6993bc;}.cls-4{fill:#232323;}.cls-5{fill:#efc76c;}.cls-6{fill:#96bce2;}.cls-7{fill:#d6d6d6;}</style></defs><title>Asset 13</title><g id="Layer_2" data-name="Layer 2"><g id="Layer_1-2" data-name="Layer 1"><path class="cls-1" d="M170.2,91.65l.23.2c.31.34,2.19,2.68.91,8a1.12,1.12,0,0,1,.19.24,19,19,0,0,0,3.66,3.57l.06.06a18,18,0,0,1,2.63-1.76c5.62-3,25.46-7.36,37.74-9.86a7.17,7.17,0,0,1,.7-2.1,1.27,1.27,0,0,1-.43-.31,1.5,1.5,0,0,1,.07-2.12c.36-.33,19.3-18,39.32-37.39,3.59-3.47,7.21-7,10.76-10.47C209,16.75,150.16,6,100.79,14.66,117.18,35.64,149.17,76.28,170.2,91.65Z"/><path class="cls-1" d="M358.6,92.49c-6,6.09-64.7,66.33-78.45,83.26a1.52,1.52,0,0,1-1.18.55,1.18,1.18,0,0,1-.37-.05,1.73,1.73,0,0,1-.5.07c-1.25,0-2.52-1.14-3.66-2.16-.31-.28-.62-.55-.91-.78-2.15-1.76-4.53-3.87-6-5.18-2.08,3.13-4.88,6.51-7.18,7.66a3,3,0,0,1-1.85.39,3,3,0,0,1-.48-.13c.69,1.58,1.73,5.75-2.06,12.06-4.64,7.74-10.92,11.71-14.91,9.46a37.18,37.18,0,0,1-4.18-3.16c1.82,2.38,3.06,4,3.09,4.07l.35.46-.06.57c-1,11.18-11.38,14.84-14.08,14.82a3,3,0,0,1-1.31-.46l-.19.58c-3.35,10-15.72,14.65-16.25,14.84l-.54.2-.27-.11a4.8,4.8,0,0,1-3.65,2.31,5.32,5.32,0,0,1-.9.05c-4.11,0-9.51-3.4-12.77-6.83a7.07,7.07,0,0,1-1.52-7.45q-.66-.48-1.32-1l-2.16,2.79a6.73,6.73,0,0,1-5.35,2.6,7,7,0,0,1-2.77-.61,36.51,36.51,0,0,1-10.29-6.93,6.74,6.74,0,0,1-.86-8.69c.93-1.35,2-2.73,3.05-4.13l-1.53-1.35c-1,1.34-1.85,2.57-2.6,3.63a7.31,7.31,0,0,1-6,3.08,7.44,7.44,0,0,1-3.43-.85,34.58,34.58,0,0,1-10.51-9,7.38,7.38,0,0,1-.06-9.24c1.34-1.69,3-3.67,4.84-5.78l-.21-.25a8.18,8.18,0,0,1-9.08.81,22.31,22.31,0,0,1-5.21-4,28.79,28.79,0,0,1-4.91-6.7,8.19,8.19,0,0,1,1.74-9.91l.79-.73-4.5-5.6c-4.45,4.68-8.09,8.17-10.09,9.41l-.81.5-.81-.52c-.31-.21-31.39-20.65-38.91-26-5.14-3.64-5.88-6.44-6.73-9.68a24.14,24.14,0,0,0-2.39-6.2c-1.58-1.64-2.68-2.83-2.91-3.09a1.46,1.46,0,0,1-.35-1.15c-2.16-2.47-5.18-5.67-8.63-9.33C44.69,96.9,26.92,78.05,17.65,61-32,128.5,23.73,270.83,177.23,243c95.58-17.31,67.85-64.83,158.31-58.79C408.15,189.1,412.49,139.49,358.6,92.49Z"/><path class="cls-2" d="M343.3,45.67C358.37,75.12,357,88.1,356.63,90.21c-4.55,4.66-58.7,60.15-76.26,80.6-.44-3.91-2.05-11-5.95-24.42a95.3,95.3,0,0,0-4.85-13c-.57-1.27-1.17-2.52-1.79-3.73a99.31,99.31,0,0,0-18.23-25,93.69,93.69,0,0,0-15.93-12.89q-2.18-1.38-4-2.34c-1.18-.64-2.24-1.14-3.15-1.53a11.68,11.68,0,0,0-5.25-1.11c6.26-5.89,20.87-19.67,36.11-34.41,17.29-16.71,35.4-34.66,43.12-43.79C305.09,9.65,328.38,16.55,343.3,45.67Z"/><path class="cls-3" d="M271.53,147.22c5.15,17.65,6,23.62,6,25.63-.37-.29-.78-.66-1.08-.92s-.69-.63-1-.88c-2.31-1.88-4.92-4.23-6.26-5.45.37-.68.68-1.3.92-1.83,2.47-5.67,1.59-9.16-8.29-16.59a62.89,62.89,0,0,0,6.22-9.91A94.56,94.56,0,0,1,271.53,147.22Z"/><path class="cls-2" d="M168.24,93.93c.37.63,2.08,4.41-3.6,13.45-1.29,2.06-3.46,5-6.19,8.57-11.81,15.32-34.08,41-40.94,46.14-5.06-3.33-31.2-20.55-38-25.36-4.25-3-4.77-5-5.56-8a1.21,1.21,0,0,1,0-.18,73,73,0,0,0,9.8,8.37,1.54,1.54,0,0,0,.79.23,1.5,1.5,0,0,0,.8-2.77c-3.6-2.25-10.24-8.79-14.18-12.86l0,0C69.65,119,65.17,114.24,59,107.66,46.26,94.19,27.18,74,18.71,56.55,24.28,51.27,58.55,19.31,88,3.41c1.43,1.61,5,6.21,9.09,11.42C113.09,35.28,146.28,77.79,168.24,93.93ZM115,131.61a8.87,8.87,0,1,0-8.92,8.81A8.89,8.89,0,0,0,115,131.61ZM90.85,107.69a8.87,8.87,0,1,0-8.92,8.81A8.87,8.87,0,0,0,90.85,107.69ZM68.4,82.34a8.87,8.87,0,1,0-8.87,8.86A8.88,8.88,0,0,0,68.4,82.34Z"/><path class="cls-4" d="M106.22,122.69a8.87,8.87,0,1,1-8.92,8.81A8.89,8.89,0,0,1,106.22,122.69Zm5.81,8.9a5.87,5.87,0,1,0-5.9,5.83A5.88,5.88,0,0,0,112,131.59Z"/><path class="cls-5" d="M106.2,125.69a5.87,5.87,0,1,1-5.9,5.83A5.88,5.88,0,0,1,106.2,125.69Z"/><path class="cls-4" d="M82,98.77a8.87,8.87,0,1,1-8.92,8.81A8.87,8.87,0,0,1,82,98.77Zm5.81,8.9A5.87,5.87,0,1,0,82,113.5,5.88,5.88,0,0,0,87.85,107.67Z"/><path class="cls-5" d="M82,101.77a5.87,5.87,0,1,1-5.9,5.83A5.88,5.88,0,0,1,82,101.77Z"/><path class="cls-4" d="M59.53,73.48a8.86,8.86,0,1,1-8.86,8.86A8.88,8.88,0,0,1,59.53,73.48Zm5.87,8.86a5.87,5.87,0,1,0-5.87,5.86A5.87,5.87,0,0,0,65.4,82.34Z"/><path class="cls-5" d="M59.53,76.48a5.86,5.86,0,1,1-5.86,5.86A5.87,5.87,0,0,1,59.53,76.48Z"/><path class="cls-6" d="M115,57s29.12,30,39.46,37.66S155,111,148.26,111,87.09,50,76.12,36.64,75.15,16,80.49,16,95.91,35,115,57Z"/><path class="cls-6" d="M279.15,137.27s0,12.37,2.67,14.37,66-67,67.33-70.33S343.49,60,341.15,57,285.24,121.94,279.15,137.27Z"/><path class="cls-7" d="M135.82,165.31c-.55.38-1.83,3.07,2.5,7.54s6.5,4.46,7.33,1.79S138,163.81,135.82,165.31Z"/><path class="cls-7" d="M153.49,198c3.53,4.12,6.5,3.16,7.83,1.33s-4.17-5.33-6.83-8.17S146.05,189.29,153.49,198Z"/><path class="cls-7" d="M174.65,213.3c3.55,2.45,5.34,3.95,7.34,1.48s-1.67-4.3-3.67-6-4.83-4.33-6.67-2.17S172,211.47,174.65,213.3Z"/><path class="cls-7" d="M196.82,223.64c2.69,1.54,5.67,3.34,7.17,0s-2.17-4-4.84-5.9-4-1.73-5,0S193.9,222,196.82,223.64Z"/><path class="cls-7" d="M151,149.17c-2.7,2.27-5,4.25-6.76,5.88L137,161.7l-.6.55-5.93-7.19-2.33-2.58,12.31-12.06,1,.85c1.31,1.09,3.85,3.21,7.21,6Z"/><path class="cls-7" d="M228,212.48h-5.5s-.6,7.33-6.8,10.5a56.87,56.87,0,0,0-8.7,5.17l-1.48-1,.86-1.57c2.34-4.36,5.69-10.74,7.67-14.53a6,6,0,0,0,.49-4.32,6.32,6.32,0,0,0-1-2.13c-.42-.59-.88-1.16-1.35-1.71a6.2,6.2,0,0,0-4.61-2.13h-.13a6.08,6.08,0,0,0-4.64,2.25c-4.09,5.07-7.86,10.46-10.07,13.75-.25.36-.47.69-.67,1l-.08.13-4.51-3.09L186,213.5l.87-1.12c3.24-4.23,7.07-9.33,9.86-13.31a4.21,4.21,0,0,0-.24-5.14,64.37,64.37,0,0,0-5.34-5.65,4.8,4.8,0,0,0-3.26-1.28,5,5,0,0,0-3.72,1.61c-2.71,2.92-7.05,7.69-11,12.57l-.32.4-6.07-5.5.24-.33c3.8-5.35,8.31-11.79,11.53-16.67a6.34,6.34,0,0,0-1-8.16l-2.7-2.47a6.35,6.35,0,0,0-8.91.32c-3.72,4-8.26,8.89-12.23,13.39-.16.18-.31.36-.47.53l-4-4.88.43-.54,13.12-16.4a5.57,5.57,0,0,0,.88-1.5l2.42,1.91,3.3,2.59c4.31,3.37,8.76,6.78,13.08,10,8.5,6.29,16.48,11.75,21.87,14.47,17.81,9,25.87,21.7,25.87,21.7S233.49,212.48,228,212.48Z"/><path class="cls-4" d="M240.26,163.87a1.68,1.68,0,0,1,.83.19Z"/><path class="cls-7" d="M274.57,146.9l-2.73,1.4c-.1-.36-.2-.72-.31-1.08a94.56,94.56,0,0,0-3.52-9.95,62.89,62.89,0,0,1-6.22,9.91c1.88,1.42,3.43,2.69,4.7,3.86l-2.85,1.46c-1.27-1.1-2.87-2.36-4.84-3.8l-.05,0h0c-.93-.63-14.13-9.42-23.19-12.61-10.09-3.55-35.77-8.24-42.64-7.62a3.49,3.49,0,0,0-1.47.36,2.76,2.76,0,0,0-.65,2.19c-1.55-1.79-2.46-2.9-2.46-2.9s-1.18-9.42,17.82-9.09c12.94.22,31-2,45.76-7.48,1-.37,2-.75,3-1.15a98.58,98.58,0,0,1,12.92,19.28c.62,1.21,1.22,2.46,1.79,3.73a95.3,95.3,0,0,1,4.85,13Z"/><path class="cls-4" d="M179.6,168.71l-2.69-2.47a9.33,9.33,0,0,0-7.52-2.37c4.31,3.37,8.76,6.78,13.08,10A9.28,9.28,0,0,0,179.6,168.71ZM165,151.5,162,147.78a8.91,8.91,0,0,0-12.6-1.13l-.69.59,2.36,1.93.27-.23a5.91,5.91,0,0,1,8.35.75l3.09,3.72a5.94,5.94,0,0,1,.93,6l2.42,1.91A8.92,8.92,0,0,0,165,151.5Zm14.56,17.21-2.69-2.47a9.33,9.33,0,0,0-7.52-2.37c4.31,3.37,8.76,6.78,13.08,10A9.28,9.28,0,0,0,179.6,168.71ZM165,151.5,162,147.78a8.91,8.91,0,0,0-12.6-1.13l-.69.59,2.36,1.93.27-.23a5.91,5.91,0,0,1,8.35.75l3.09,3.72a5.94,5.94,0,0,1,.93,6l2.42,1.91A8.92,8.92,0,0,0,165,151.5Zm14.56,17.21-2.69-2.47a9.33,9.33,0,0,0-7.52-2.37c4.31,3.37,8.76,6.78,13.08,10A9.28,9.28,0,0,0,179.6,168.71ZM165,151.5,162,147.78a8.91,8.91,0,0,0-12.6-1.13l-.69.59,2.36,1.93.27-.23a5.91,5.91,0,0,1,8.35.75l3.09,3.72a5.94,5.94,0,0,1,.93,6l2.42,1.91A8.92,8.92,0,0,0,165,151.5Zm14.56,17.21-2.69-2.47a9.33,9.33,0,0,0-7.52-2.37c4.31,3.37,8.76,6.78,13.08,10A9.28,9.28,0,0,0,179.6,168.71ZM162,147.78a8.91,8.91,0,0,0-12.6-1.13l-.69.59,2.36,1.93.27-.23a5.91,5.91,0,0,1,8.35.75l3.09,3.72a5.94,5.94,0,0,1,.93,6l2.42,1.91A8.92,8.92,0,0,0,165,151.5ZM346,44.31C328.7,10.58,301.28,5.59,300.12,5.39l-.84-.14-.56.67C292.91,12.93,280,26,266,39.68c-3.55,3.48-7.17,7-10.76,10.47-20,19.35-39,37.06-39.32,37.39a1.5,1.5,0,0,0-.07,2.12,1.27,1.27,0,0,0,.43.31,7.17,7.17,0,0,0-.7,2.1c-12.28,2.5-32.12,6.87-37.74,9.86a18,18,0,0,0-2.63,1.76l-.06-.06a19,19,0,0,1-3.66-3.57,1.12,1.12,0,0,0-.19-.24c1.28-5.29-.6-7.63-.91-8l-.23-.2c-21-15.37-53-56-69.41-77-.45-.58-.88-1.14-1.31-1.68-5.31-6.8-7.94-10.17-9.42-11.73s-1.82-1.36-2.52-1C55,17.54,16.23,54.76,15.84,55.14l-.77.74.46,1q1,2.05,2.12,4.17c9.27,17,27,35.88,39.13,48.7,3.45,3.66,6.47,6.86,8.63,9.33a1.46,1.46,0,0,0,.35,1.15c.23.26,1.33,1.45,2.91,3.09a24.14,24.14,0,0,1,2.39,6.2c.85,3.24,1.59,6,6.73,9.68,7.52,5.34,38.6,25.78,38.91,26l.81.52.81-.5c2-1.24,5.64-4.73,10.09-9.41l4.5,5.6-.79.73a8.19,8.19,0,0,0-1.74,9.91,28.79,28.79,0,0,0,4.91,6.7,22.31,22.31,0,0,0,5.21,4,8.18,8.18,0,0,0,9.08-.81l.21.25c-1.84,2.11-3.5,4.09-4.84,5.78a7.38,7.38,0,0,0,.06,9.24,34.58,34.58,0,0,0,10.51,9,7.44,7.44,0,0,0,3.43.85,7.31,7.31,0,0,0,6-3.08c.75-1.06,1.63-2.29,2.6-3.63l1.53,1.35c-1.09,1.4-2.12,2.78-3.05,4.13a6.74,6.74,0,0,0,.86,8.69,36.51,36.51,0,0,0,10.29,6.93,7,7,0,0,0,2.77.61,6.73,6.73,0,0,0,5.35-2.6l2.16-2.79q.66.51,1.32,1a7.07,7.07,0,0,0,1.52,7.45c3.26,3.43,8.66,6.81,12.77,6.83a5.32,5.32,0,0,0,.9-.05,4.8,4.8,0,0,0,3.65-2.31l.27.11.54-.2c.53-.19,12.9-4.79,16.25-14.84l.19-.58a3,3,0,0,0,1.31.46c2.7,0,13.09-3.64,14.08-14.82l.06-.57-.35-.46s-1.27-1.69-3.09-4.07a37.18,37.18,0,0,0,4.18,3.16c4,2.25,10.27-1.72,14.91-9.46,3.79-6.31,2.75-10.48,2.06-12.06a3,3,0,0,0,.48.13,3,3,0,0,0,1.85-.39c2.3-1.15,5.1-4.53,7.18-7.66,1.43,1.31,3.81,3.42,6,5.18.29.23.6.5.91.78,1.14,1,2.41,2.15,3.66,2.16a1.73,1.73,0,0,0,.5-.07,1.18,1.18,0,0,0,.37.05,1.52,1.52,0,0,0,1.18-.55c13.75-16.93,72.5-77.17,78.45-83.26l.48-.49.25-.26.11-.36C359.6,90.85,363.16,77.9,346,44.31ZM220,90.17c1.19-.77,3-.43,4.52.13-1.14.21-3.08.59-5.54,1.08A2.89,2.89,0,0,1,220,90.17Zm-40.69,14.41c7.7-4.1,46.1-11.4,46.85-11.54l3-.53a86.38,86.38,0,0,1,18.27,14.13c1.51,1.51,3,3.13,4.53,4.86a95.15,95.15,0,0,1,14.41,22l-.65,1.75a59.71,59.71,0,0,1-6.34,10.2c-3.56-2.34-14.57-9.34-22.78-12.22-6.72-2.37-34-8.61-43.91-7.65a5.66,5.66,0,0,0-3.27,1,4.76,4.76,0,0,0-1,1.47c-1.91,4,1.5,10.82,7.63,22.35,5.35,10,1.66,13.13-1.61,15.86-.39.33-.78.65-1.13,1a2.18,2.18,0,0,1-1.73.72c-2.78-.23-7.83-6.18-12.41-12-2.44-3.09-4.86-5.88-7.21-8.58-6.19-7.12-11.07-12.74-10-16.89C163.6,123.74,172,108.49,179.29,104.58Zm-61.78,57.51c-5.06-3.33-31.2-20.55-38-25.36-4.25-3-4.77-5-5.56-8a1.21,1.21,0,0,1,0-.18,73,73,0,0,0,9.8,8.37,1.54,1.54,0,0,0,.79.23,1.5,1.5,0,0,0,.8-2.77c-3.6-2.25-10.24-8.79-14.18-12.86l0,0C69.65,119,65.17,114.24,59,107.66l-2.36-2.51c-2.63-2.79-5.47-5.83-8.39-9-.66-.73-1.34-1.47-2-2.22-3.45-3.84-7-7.88-10.33-12-.47-.56-.93-1.12-1.37-1.69s-.91-1.12-1.35-1.69a134.23,134.23,0,0,1-13.5-20.11c-.33-.62-.64-1.24-.94-1.86C24.28,51.27,58.55,19.31,88,3.41c1.43,1.61,5,6.21,9.09,11.42l.34.44c.64.83,1.32,1.68,2,2.58l1.19,1.53c2.27,2.9,4.79,6.09,7.48,9.49q.81,1,1.62,2c6.31,7.91,13.51,16.75,20.94,25.41Q133,59,135.35,61.66c2.54,2.88,5.08,5.71,7.61,8.45.82.89,1.63,1.76,2.45,2.62,3.65,3.89,7.26,7.56,10.75,10.87l2,1.85.66.59c.64.59,1.26,1.16,1.89,1.71,2.63,2.33,5.17,4.41,7.57,6.18.37.63,2.08,4.41-3.6,13.45-1.29,2.06-3.46,5-6.19,8.57C146.64,131.27,124.37,156.9,117.51,162.09Zm31,16.6a5.89,5.89,0,0,1-.87.86,5.22,5.22,0,0,1-5.72.49,19.48,19.48,0,0,1-4.52-3.44,26,26,0,0,1-4.4-6,5.2,5.2,0,0,1,1.13-6.28l.64-.59,1.62-1.47.6-.55,7.26-6.65c1.79-1.63,4.06-3.61,6.76-5.88l.27-.23a5.91,5.91,0,0,1,8.35.75l3.09,3.72a5.94,5.94,0,0,1,.93,6,5.57,5.57,0,0,1-.88,1.5l-13.12,16.4-.43.54Zm16.79,19.51-2.78,3.9a4.39,4.39,0,0,1-5.64,1.32,26.9,26.9,0,0,1-5.59-3.95,37,37,0,0,1-4-4.21,4.38,4.38,0,0,1,0-5.5c1.24-1.57,2.75-3.38,4.42-5.31l1.54-1.76c.16-.17.31-.35.47-.53,4-4.5,8.51-9.4,12.23-13.39a6.35,6.35,0,0,1,8.91-.32l2.7,2.47a6.34,6.34,0,0,1,1,8.16c-3.22,4.88-7.73,11.32-11.53,16.67l-.24.33C166.32,196.81,165.82,197.52,165.32,198.2Zm19.78,16.51L183,217.48a3.74,3.74,0,0,1-4.51,1.11,35.74,35.74,0,0,1-5.73-3.28,32.52,32.52,0,0,1-3.72-3.07,3.76,3.76,0,0,1-.48-4.84c.88-1.25,1.84-2.56,2.85-3.88.5-.65,1-1.29,1.53-1.94l.32-.4c3.94-4.88,8.28-9.65,11-12.57a5,5,0,0,1,3.72-1.61,4.8,4.8,0,0,1,3.26,1.28,64.37,64.37,0,0,1,5.34,5.65,4.21,4.21,0,0,1,.24,5.14c-2.79,4-6.62,9.08-9.86,13.31L186,213.5Zm20,13.11a2.31,2.31,0,0,1-.25.36,2,2,0,0,1-1.27.61c-3,.37-8.13-2.73-11.12-5.87a4.18,4.18,0,0,1-1.15-2.9,2.84,2.84,0,0,1,.05-.58,3.83,3.83,0,0,1,.57-1.56l.08-.13c.2-.31.42-.64.67-1,2.21-3.29,6-8.68,10.07-13.75a6.08,6.08,0,0,1,4.64-2.25h.13a6.2,6.2,0,0,1,4.61,2.13c.47.55.93,1.12,1.35,1.71a6.32,6.32,0,0,1,1,2.13A6,6,0,0,1,214,211c-2,3.79-5.33,10.17-7.67,14.53l-.86,1.57Zm11.55-15.39a9.1,9.1,0,0,0,.86-2.42c1.77,1.94,3.23,3.53,4,4.37-2.33,5.75-8.37,9.42-11.74,11.1C212.08,221.24,214.93,215.81,216.69,212.43Zm50.63-49.85a26.36,26.36,0,0,1-1.27,2.46.42.42,0,0,0-.09.14c-2.3,3.81-5.77,7.69-7,8.09-1.56-.49-10-4.88-17.86-9.21a1.68,1.68,0,0,0-.83-.19,1.52,1.52,0,0,0-1.26.79,1.54,1.54,0,0,0,.52,2.05c4,2.52,13.95,9.33,15.79,10.59.37.81,1.37,3.92-1.88,9.35-4.25,7.07-9,9.41-10.87,8.38-2.13-1.2-10.83-9-15.17-12.9a1.6,1.6,0,0,0-2.31,2.19c4.66,5.65,10.66,13.56,12.16,15.56a13.07,13.07,0,0,1-7,10.13,11.9,11.9,0,0,1-3.87,1.38l-.27-.13c-1.54-.83-5.65-4.41-10.42-8.84h0c-.39-.51-.79-1-1.19-1.48a9.17,9.17,0,0,0-2.59-2.07c-1.25-1.19-2.51-2.41-3.74-3.62a1.54,1.54,0,0,0-2.2,2.16l.42.43a9,9,0,0,0-5.89,3.29c-2.3,2.85-4.51,5.81-6.4,8.45-1.47,2.06-2.77,3.93-3.75,5.39l-1-.76c3.26-4.25,7.12-9.4,9.94-13.4a7.21,7.21,0,0,0-.42-8.81,64.83,64.83,0,0,0-5.59-5.92,8,8,0,0,0-11.2.5c-3.26,3.49-7.37,8.06-11.06,12.66l-1.65-1.45c3.86-5.43,8.49-12.06,11.78-17.06a9.3,9.3,0,0,0-1.49-12l-2.69-2.47a9.39,9.39,0,0,0-13.13.48c-3.65,3.9-8.07,8.68-12,13.11l-.17-.21,13.52-16.87a8.2,8.2,0,0,0,1-1.47A8.92,8.92,0,0,0,165,151.5L162,147.78a8.91,8.91,0,0,0-12.6-1.13l-.69.59c-2.54,2.14-4.7,4-6.42,5.6l-7.13,6.52c-2.09-2.62-3.75-4.69-4.64-5.79h0c3.41-3.67,7.18-7.9,11-12.29,7-8.11,14.15-16.77,19.3-23.44,2.88-3.71,5.13-6.81,6.42-8.86a38.08,38.08,0,0,0,3-5.81,30.09,30.09,0,0,0,2.77,2.55h0c-6.67,6.64-12.54,18.21-14,24.05-1.45,5.68,3.89,11.82,10.65,19.61,2.32,2.67,4.73,5.44,7.12,8.47,7.43,9.4,11.22,12.84,14.51,13.11l.38,0a5.23,5.23,0,0,0,3.62-1.51c.32-.29.67-.58,1-.89,3.52-2.94,8.83-7.38,2.34-19.58-4.59-8.62-7.69-14.72-7.82-18a2.76,2.76,0,0,1,.65-2.19,3.49,3.49,0,0,1,1.47-.36c6.87-.62,32.55,4.07,42.64,7.62,9.06,3.19,22.26,12,23.19,12.61h0l.05,0c2,1.44,3.57,2.7,4.84,3.8C269.5,157.61,268.63,159.61,267.32,162.58Zm9.12,9.35c-.35-.32-.69-.63-1-.88-2.31-1.88-4.92-4.23-6.26-5.45.37-.68.68-1.3.92-1.83a10.84,10.84,0,0,0,1.15-5.07,1.84,1.84,0,0,0,0-.33,1.1,1.1,0,0,0,0-.18.5.5,0,0,0,0-.12,2,2,0,0,0-.06-.32c0-.13-.06-.27-.09-.4l0-.13a8.87,8.87,0,0,0-.36-1s0,0,0,0-.11-.24-.17-.36l-.15-.28a2.68,2.68,0,0,0-.18-.33l-.24-.38c-.11-.17-.22-.34-.35-.51s-.24-.33-.37-.5-.29-.37-.45-.55-.31-.36-.48-.54-.34-.37-.52-.55l-.57-.57-.62-.59-.49-.44-.52-.46-.54-.46-.33-.27-.39-.32,0,0-.42-.34-.14-.12c-.58-.45-1.19-.93-1.84-1.42a62.89,62.89,0,0,0,6.22-9.91,94.56,94.56,0,0,1,3.52,9.95c.11.36.21.72.31,1.08l.59,2,.66,2.34c.18.64.35,1.27.52,1.88s.37,1.33.54,2,.27,1,.39,1.49c.19.71.36,1.38.53,2,.08.32.16.63.23.93s.15.6.22.89c.2.82.39,1.58.55,2.3.09.36.17.7.24,1l.21.93c.1.49.19.95.28,1.38.05.24.09.47.14.7.11.62.21,1.18.29,1.68,0,.27.08.52.11.75a15.41,15.41,0,0,1,.18,2.23C277.15,172.56,276.74,172.19,276.44,171.93Zm78.18-79.66-1.15,1.18L352,95l-1.63,1.68s0,0,0,0l-1.38,1.42-1,1c-3.54,3.65-7.93,8.17-12.78,13.2l-1.4,1.45c-1.88,2-3.83,4-5.82,6.05L324,124l-3.65,3.81-3.1,3.24-3.86,4.06-1.52,1.6c-2,2.12-4,4.24-6,6.33l-2.4,2.55-2,2.11-2.39,2.55c-3.41,3.65-6.64,7.14-9.56,10.33L287.33,163l-.15.17-2.07,2.29c-.38.44-.77.87-1.15,1.29l-1.84,2.09-1.75,2c0-.14,0-.28-.05-.43s0-.22-.05-.34-.06-.48-.1-.73c0,0,0-.08,0-.12,0-.3-.1-.61-.16-.94l-.09-.5c0-.31-.11-.63-.18-1-.19-.95-.42-2-.69-3.2-.09-.41-.19-.84-.3-1.28a.83.83,0,0,0,0-.15c-.11-.49-.23-1-.37-1.53l0-.13c-.13-.49-.26-1-.39-1.52-.65-2.56-1.46-5.54-2.44-9-.22-.76-.45-1.55-.68-2.36l-.21-.73-.15-.51a95.3,95.3,0,0,0-4.85-13c-.57-1.27-1.17-2.52-1.79-3.73-.33-.64-.66-1.27-1-1.9s-.65-1.19-1-1.78l-.07-.12c-.3-.54-.61-1.07-.91-1.59s-.8-1.32-1.21-2-.64-1-1-1.51l-.41-.63c-.2-.3-.39-.6-.59-.89-.05-.07-.09-.14-.14-.2s-.21-.31-.32-.47q-.42-.61-.84-1.2l-.06-.09c-.32-.45-.63-.88-1-1.31-.44-.61-.9-1.22-1.36-1.81-.26-.34-.52-.68-.79-1L257,113l-1.31-1.6-.6-.71-.25-.3c-.26-.31-.53-.61-.79-.91l-.89-1c-.4-.45-.8-.89-1.21-1.32-.8-.87-1.61-1.7-2.42-2.51a93.69,93.69,0,0,0-15.93-12.89q-2.18-1.38-4-2.34c-1.18-.64-2.24-1.14-3.15-1.53a11.68,11.68,0,0,0-5.25-1.11c6.26-5.89,20.87-19.67,36.11-34.41l2.94-2.85,1.93-1.87,3.25-3.16,3.62-3.54,1.24-1.21c.82-.82,1.64-1.62,2.45-2.42,4.08-4,8-8,11.64-11.63l2.05-2.08,4.06-4.19,1.21-1.27,1.55-1.63,1.62-1.73c2.19-2.35,4.07-4.45,5.56-6.21,4.65,1.11,27.94,8,42.86,37.13C358.37,75.12,357,88.1,356.63,90.21l-.31.32ZM165,151.5,162,147.78a8.91,8.91,0,0,0-12.6-1.13l-.69.59,2.36,1.93.27-.23a5.91,5.91,0,0,1,8.35.75l3.09,3.72a5.94,5.94,0,0,1,.93,6l2.42,1.91A8.92,8.92,0,0,0,165,151.5Zm14.56,17.21-2.69-2.47a9.33,9.33,0,0,0-7.52-2.37c4.31,3.37,8.76,6.78,13.08,10A9.28,9.28,0,0,0,179.6,168.71ZM165,151.5,162,147.78a8.91,8.91,0,0,0-12.6-1.13l-.69.59,2.36,1.93.27-.23a5.91,5.91,0,0,1,8.35.75l3.09,3.72a5.94,5.94,0,0,1,.93,6l2.42,1.91A8.92,8.92,0,0,0,165,151.5Zm14.56,17.21-2.69-2.47a9.33,9.33,0,0,0-7.52-2.37c4.31,3.37,8.76,6.78,13.08,10A9.28,9.28,0,0,0,179.6,168.71ZM165,151.5,162,147.78a8.91,8.91,0,0,0-12.6-1.13l-.69.59,2.36,1.93.27-.23a5.91,5.91,0,0,1,8.35.75l3.09,3.72a5.94,5.94,0,0,1,.93,6l2.42,1.91A8.92,8.92,0,0,0,165,151.5Zm14.56,17.21-2.69-2.47a9.33,9.33,0,0,0-7.52-2.37c4.31,3.37,8.76,6.78,13.08,10A9.28,9.28,0,0,0,179.6,168.71Z"/></g></g></svg>