<svg xmlns="http://www.w3.org/2000/svg" viewBox="0 0 48.48 43.74"><defs><style>.cls-1,.cls-2{fill:#fff;}.cls-1{fill-rule:evenodd;}</style></defs><title>Asset 6</title><g id="Layer_2" data-name="Layer 2"><g id="Layer_1-2" data-name="Layer 1"><path class="cls-1" d="M46.8,0H1.68A1.68,1.68,0,0,0,0,1.68V32.49a1.68,1.68,0,0,0,1.68,1.67h15.4v6.48h-3v3.1H34.41v-3.1h-3V34.16H46.8a1.68,1.68,0,0,0,1.68-1.67V1.68A1.68,1.68,0,0,0,46.8,0ZM33.35,41.71v1H15.13v-1Zm-15.2-1.07V34.16H30.33v6.48Zm29.27-8.15a.61.61,0,0,1-.62.61H1.68a.61.61,0,0,1-.62-.61V28.22H47.42Zm0-5.33H1.06V1.68a.62.62,0,0,1,.62-.62H46.8a.62.62,0,0,1,.62.62Z"/><rect class="cls-2" x="17.08" y="4.62" width="26.09" height="2" rx="0.61" ry="0.61"/><rect class="cls-2" x="17.08" y="8.4" width="26.09" height="2" rx="0.61" ry="0.61"/><rect class="cls-2" x="17.08" y="12.18" width="16.75" height="2" rx="0.61" ry="0.61"/><rect class="cls-2" x="36.36" y="12.18" width="6.81" height="2" rx="0.61" ry="0.61"/><rect class="cls-2" x="5.31" y="4.62" width="7.76" height="7.76" rx="0.61" ry="0.61"/><rect class="cls-2" x="5.24" y="18.36" width="37.93" height="5.88" rx="0.61" ry="0.61"/></g></g></svg>