<svg xmlns="http://www.w3.org/2000/svg" viewBox="0 0 471.01 225.82"><defs><style>.cls-1{fill:#b2d2f9;}.cls-2{fill:#828282;}.cls-3{fill:#232323;}.cls-4{fill:#606060;}.cls-5{fill:#efc76c;}.cls-6{fill:#fff;}.cls-7{fill:#f24949;}.cls-8{fill:#e5a930;}</style></defs><title>Asset 14</title><g id="Layer_2" data-name="Layer 2"><g id="Layer_1-2" data-name="Layer 1"><path class="cls-1" d="M147.61,156.43c4.6-14.37,12.35-37.38,19.21-52.11A28.38,28.38,0,0,1,181.93,90C212.24,77.79,310.16,39.89,391,27c0,0-4.5-21-5-26.5S463.54,40,470.54,48,405,131.46,399,134s-4-30.5-4-30.5-169.11,36.9-238.9,61.29A6.66,6.66,0,0,1,147.61,156.43Z"/><path class="cls-2" d="M121.36,90.69a2.77,2.77,0,0,1,.63-3.83c6.84-5,27.56-20,32.55-22.9,6-3.5,10.75-2,23,5.25s37.87,24.35,37.87,24.35l24.13,6.9-6.25,25.17S170.54,78.46,165,74.21s-7.5-1.75-16,3.5C142.35,81.84,130,88.76,125,91.52a2.77,2.77,0,0,1-3.6-.83Z"/><path class="cls-3" d="M232.71,121.73l-.33,1.34-4-3c1.32,2.38,2.54,4.55,3.6,6.46l.45.34,1.81,1.36.65-2.63C234.2,124.39,233.49,123.11,232.71,121.73ZM216.05,92.19l-5.12-3.39,3.18,5.71.47.31.19.13,3.59,1-2.07-3.72Z"/><path class="cls-2" d="M242,146.48a9.75,9.75,0,1,1-9.75,9.75,9.76,9.76,0,0,1,9.75-9.75m0-8a17.75,17.75,0,1,0,17.75,17.75A17.75,17.75,0,0,0,242,138.48Z"/><circle class="cls-4" cx="241.99" cy="156.23" r="4.66"/><circle class="cls-4" cx="327.07" cy="159.46" r="7.52"/><path class="cls-2" d="M326.85,146.48a13,13,0,1,1-13,13,13,13,0,0,1,13-13m0-8a21,21,0,1,0,21,21,21,21,0,0,0-21-21Z"/><path class="cls-5" d="M237.38,133c-5.94-10.65-20.72-37.11-32.47-58.28a9.38,9.38,0,0,1,2.58-12.07C226.25,48.52,284,10.38,354.23,14.78a7.67,7.67,0,0,1,7.14,8.61,657.71,657.71,0,0,1-21.22,101,8.75,8.75,0,0,1-8.09,6.24c-14.55.51-52.14,2.13-86.67,6.38A8,8,0,0,1,237.38,133Z"/><path class="cls-6" d="M239.54,78.71c-2.57,2.17,5.75,14,12.75,23.75s8.5,19,35-7.75S326.29,53.46,326,50s-51.5,38.5-62,40.75S244.29,74.71,239.54,78.71Z"/><path class="cls-7" d="M239.54,73.71c-2.57,2.17,5.75,14,12.75,23.75s8.5,19,35-7.75S326.29,48.46,326,45s-51.5,38.5-62,40.75S244.29,69.71,239.54,73.71Z"/><path class="cls-8" d="M342.9,31.73a5.56,5.56,0,0,1,5.89,6.08,384,384,0,0,1-9,53c-4.33,17.42-6.74,24.34-8.83,27.15a2.56,2.56,0,0,1-4.59-1.78c1.27-13.65,5.5-59.82,6.07-78.67a5.55,5.55,0,0,1,5.07-5.37C339.1,32,340.93,31.85,342.9,31.73Z"/><path class="cls-4" d="M121.36,90.69c1.23-.86,32.18-20.23,32.18-20.23a9.83,9.83,0,0,1,12.33-1.33c7,4.33,59.77,38,62.47,46.33l2.7,8.34L180.16,85.65,161.87,73s-2.67-5.5-31.17,15.5l-7.5,3.17Z"/><path class="cls-3" d="M326.85,137.18a22.48,22.48,0,1,0,22.48,22.47A22.5,22.5,0,0,0,326.85,137.18Zm0,41.95a19.48,19.48,0,1,1,19.48-19.48A19.5,19.5,0,0,1,326.85,179.13Z"/><path class="cls-3" d="M360.83,16.79a9.21,9.21,0,0,0-6.51-3.31C284.65,9.11,227.79,45.69,206.58,61.61a11,11,0,0,0-3,14c2.36,4.25,4.84,8.71,7.34,13.19-8.19-5.41-23.88-15.7-32.63-20.87-12.48-7.39-17.77-9.19-24.52-5.26-4.93,2.88-24.49,17-32.67,23a4.27,4.27,0,0,0,4.57,7.19c5-2.78,17.42-9.69,24.15-13.85,1.16-.71,2.2-1.38,3.14-2,6-3.83,7.23-4.63,11.15-1.61,5.2,4,62.15,46.83,67.82,51.09l4.13,7.4a9.54,9.54,0,0,0,3.36,3.49,19.25,19.25,0,1,0,9.12,1c33.62-4,69.44-5.52,83.56-6a10.24,10.24,0,0,0,9.47-7.31c13.18-43.94,19.27-85.46,21.27-101.27A9,9,0,0,0,360.83,16.79ZM166,73c-2.25-1.73-4.08-2.46-5.85-2.46-2.64,0-5.16,1.61-8.75,3.91-.94.6-2,1.25-3.11,2-6.67,4.12-19,11-24,13.77a1.26,1.26,0,0,1-.61.16,1.25,1.25,0,0,1-1-.54,1.27,1.27,0,0,1,.28-1.75c6.36-4.63,27.48-19.93,32.43-22.82,5.16-3,9.18-2,21.48,5.25,11.16,6.6,33.78,21.63,37.33,24,5.17,9.3,10.22,18.35,14.23,25.52C212.62,108.22,170.39,76.46,166,73Zm92.28,83.41A16.25,16.25,0,1,1,242,140.19,16.27,16.27,0,0,1,258.24,156.44Zm101.64-133c-2,15.73-8.05,57.05-21.17,100.78a7.27,7.27,0,0,1-6.7,5.18c-14.58.5-52.22,2.12-86.8,6.38a6.52,6.52,0,0,1-6.52-3.32c-.7-1.24-2-3.63-3.84-6.86-.65-1.17-1.36-2.45-2.14-3.83L218.36,96l-2.07-3.72L206.22,74.15A7.93,7.93,0,0,1,208.39,64c19.78-14.85,70.94-47.89,134.43-47.89,3.72,0,7.51.11,11.32.35a6.16,6.16,0,0,1,5.74,6.93Z"/><path class="cls-1" d="M3.5,91.45a3.5,3.5,0,0,1-.68-6.94L123.07,60.66a3.5,3.5,0,0,1,1.36,6.87L4.18,91.38A4,4,0,0,1,3.5,91.45Z"/><path class="cls-1" d="M148.71,225.82a3.5,3.5,0,0,1-.68-6.94l169.65-33.65A3.5,3.5,0,1,1,319,192.1L149.39,225.75A3.21,3.21,0,0,1,148.71,225.82Z"/><path class="cls-1" d="M61.5,175.5a3.5,3.5,0,0,1-.67-6.94L165.52,147.8a3.5,3.5,0,0,1,1.36,6.87L62.19,175.43A3.23,3.23,0,0,1,61.5,175.5Z"/><path class="cls-6" d="M183.72,140.77a3.5,3.5,0,0,1-.68-6.93l61.85-12.27a3.5,3.5,0,0,1,1.36,6.87L184.4,140.71A3.91,3.91,0,0,1,183.72,140.77Z"/><path class="cls-1" d="M186.54,40.05a3.5,3.5,0,0,1-.67-6.93l48.63-9.65a3.5,3.5,0,0,1,1.36,6.87L187.23,40A4,4,0,0,1,186.54,40.05Z"/><path class="cls-1" d="M158.21,199.26a3.5,3.5,0,0,1-.67-6.93L234.79,177a3.5,3.5,0,1,1,1.36,6.87L158.9,199.19A3.23,3.23,0,0,1,158.21,199.26Z"/></g></g></svg>