<svg xmlns="http://www.w3.org/2000/svg" viewBox="0 0 110.96 97.69"><defs><style>.cls-1{fill:#f4ce2c;}.cls-2,.cls-3{fill:#424242;}.cls-11,.cls-12,.cls-13,.cls-3,.cls-4{fill-rule:evenodd;}.cls-4,.cls-9{fill:#fff;}.cls-11,.cls-5{fill:#f9dea7;}.cls-12,.cls-6{fill:#8bb6ea;}.cls-13,.cls-7{fill:#c0daf9;}.cls-8{fill:#316edb;}.cls-10{fill:#c1c1c1;}</style></defs><title>Asset 9</title><g id="Layer_2" data-name="Layer 2"><g id="Layer_1-2" data-name="Layer 1"><circle class="cls-1" cx="56.78" cy="48.84" r="48.84"/><path class="cls-2" d="M32.35,66.12V77.63a2.45,2.45,0,0,1-2.45,2.45H2.45A2.45,2.45,0,0,1,0,77.63V41a2.45,2.45,0,0,1,2.45-2.44H21.52v1.55H2.45a.89.89,0,0,0-.9.89V77.63a.91.91,0,0,0,.9.91H29.9a.92.92,0,0,0,.9-.91V66.12Z"/><path class="cls-3" d="M107.54,48.84h-9.8a3.42,3.42,0,0,0-3.41,3.42V76.94a3.41,3.41,0,0,0,3.41,3.41h9.8A3.42,3.42,0,0,0,111,76.94V52.26A3.42,3.42,0,0,0,107.54,48.84Zm1.87,28.1a1.87,1.87,0,0,1-1.87,1.86h-9.8a1.86,1.86,0,0,1-1.86-1.86V52.26a1.87,1.87,0,0,1,1.86-1.87H99.2v1.18a.37.37,0,0,0,.36.37h6.17a.37.37,0,0,0,.36-.37V50.39h1.45a1.87,1.87,0,0,1,1.87,1.87Z"/><path class="cls-4" d="M109.41,52.26V76.94a1.87,1.87,0,0,1-1.87,1.86h-9.8a1.86,1.86,0,0,1-1.86-1.86V52.26a1.87,1.87,0,0,1,1.86-1.87H99.2v1.18a.37.37,0,0,0,.36.37h6.17a.37.37,0,0,0,.36-.37V50.39h1.45A1.87,1.87,0,0,1,109.41,52.26Z"/><rect class="cls-5" x="97.36" y="61.2" width="10.57" height="0.81" rx="0.4" ry="0.4"/><rect class="cls-5" x="97.36" y="67.54" width="10.57" height="5.79" rx="0.4" ry="0.4"/><rect class="cls-6" x="97.36" y="62.73" width="10.57" height="0.81" rx="0.4" ry="0.4"/><rect class="cls-7" x="97.36" y="64.26" width="6.79" height="0.81" rx="0.4" ry="0.4"/><rect class="cls-7" x="105" y="64.26" width="2.93" height="0.81" rx="0.4" ry="0.4"/><rect class="cls-8" x="100.29" y="54.61" width="4.71" height="4.71" rx="0.89" ry="0.89"/><path class="cls-2" d="M89.69,16.63H24a2.45,2.45,0,0,0-2.44,2.45V64A2.44,2.44,0,0,0,24,66.39H46.41v9.45H42v4.51H71.65V75.84H67.26V66.39H89.69A2.45,2.45,0,0,0,92.14,64V19.08A2.45,2.45,0,0,0,89.69,16.63ZM70.1,77.38V78.8H43.56V77.38ZM48,75.84V66.39H65.71v9.45ZM90.59,64a.9.9,0,0,1-.9.9H24a.89.89,0,0,1-.89-.9V57.74H90.59Zm0-7.76H23.07V19.08a.9.9,0,0,1,.89-.9H89.69a.9.9,0,0,1,.9.9Z"/><path class="cls-9" d="M30.8,66.39V77.63a.92.92,0,0,1-.9.91H2.45a.91.91,0,0,1-.9-.91V41a.89.89,0,0,1,.9-.89H21.52V64A2.44,2.44,0,0,0,24,66.39Z"/><rect class="cls-10" x="43.56" y="77.38" width="26.55" height="1.42"/><rect class="cls-10" x="47.96" y="66.39" width="17.75" height="9.44"/><path class="cls-10" d="M90.59,57.74V64a.9.9,0,0,1-.9.9H24a.89.89,0,0,1-.89-.9V57.74Z"/><path class="cls-11" d="M21.52,42.78v1.31H12.1a.59.59,0,0,1-.6-.59v-.12a.6.6,0,0,1,.6-.6Z"/><path class="cls-12" d="M21.52,45.26v1.32H12.1a.6.6,0,0,1-.6-.6v-.11a.6.6,0,0,1,.6-.61Z"/><path class="cls-12" d="M4.33,60.54H21.52v1.32H4.33a.61.61,0,0,1-.6-.6v-.12A.6.6,0,0,1,4.33,60.54Z"/><rect class="cls-6" x="3.73" y="68.88" width="24.88" height="1.31" rx="0.66" ry="0.66"/><rect class="cls-5" x="3.78" y="71.36" width="17.75" height="1.31" rx="0.66" ry="0.66"/><rect class="cls-5" x="3.78" y="66.39" width="3.89" height="1.31" rx="0.66" ry="0.66"/><rect class="cls-7" x="23.2" y="71.36" width="5.42" height="1.31" rx="0.66" ry="0.66"/><path class="cls-13" d="M11.5,48.46v-.11a.6.6,0,0,1,.6-.61h9.42v1.32H12.1A.6.6,0,0,1,11.5,48.46Z"/><path class="cls-13" d="M3.73,58.78v-.12a.6.6,0,0,1,.6-.6H21.52v1.31H4.33A.59.59,0,0,1,3.73,58.78Z"/><path class="cls-11" d="M14.17,63a.6.6,0,0,1,.6.6v.12a.6.6,0,0,1-.6.6H4.37a.6.6,0,0,1-.59-.6v-.12a.6.6,0,0,1,.59-.6Z"/><path class="cls-11" d="M3.73,55V52.48a.68.68,0,0,1,.69-.68h17.1v3.85H4.42A.69.69,0,0,1,3.73,55Z"/><rect class="cls-8" x="3.78" y="42.78" width="5.09" height="5.09" rx="0.89" ry="0.89"/><path class="cls-9" d="M90.59,19.08V56.19H23.07V19.08a.9.9,0,0,1,.89-.9H89.69A.9.9,0,0,1,90.59,19.08Z"/><rect class="cls-5" x="46.41" y="23.36" width="38" height="2.92" rx="0.89" ry="0.89"/><rect class="cls-6" x="46.41" y="28.87" width="38" height="2.92" rx="0.89" ry="0.89"/><rect class="cls-7" x="46.41" y="34.38" width="24.4" height="2.92" rx="0.89" ry="0.89"/><rect class="cls-7" x="74.49" y="34.38" width="9.92" height="2.92" rx="0.89" ry="0.89"/><rect class="cls-8" x="29.26" y="23.36" width="11.31" height="11.31" rx="0.89" ry="0.89"/><rect class="cls-5" x="29.16" y="43.37" width="55.25" height="8.57" rx="0.89" ry="0.89"/></g></g></svg>