<svg xmlns="http://www.w3.org/2000/svg" viewBox="0 0 208.49 262.57"><defs><style>.cls-1{fill:#f3cd2c;}.cls-2{fill:#11183f;}.cls-3{fill:#fff;}.cls-4{fill:#c8c8c8;}.cls-5{fill:#987745;}.cls-6{fill:#232323;}.cls-7{fill:#9d8318;}.cls-8{fill:#dfbc28;}</style></defs><title>Asset 5</title><g id="Layer_2" data-name="Layer 2"><g id="Layer_1-2" data-name="Layer 1"><path class="cls-1" d="M171.73,89.15s-8-2.13-10.44-.94l-3.62-.54c-3-.44-6-1-9-.58-2.74.41-5.43,1.22-8.14,1.81q-5.62,1.21-11.3,2.11c-3.13,9.83-7.44,20-17.49,24.34a16.31,16.31,0,0,1-12.89.28c-4.26-1.7-7.95-5.07-10.85-9.09q-10.53,8-21.79,15.08a1,1,0,0,1-.21.09q-8.11,25.1-17.23,49.87h0c.33.19.65.4,1,.61s.91.63,1.35,1c10.7,8,14.18,22.37,18,34.75Q79.09,193.29,88,178a.82.82,0,0,1,1.42.83q-1.26,2.16-2.54,4.31c7.79,7.81,14.69,16.42,21.61,25a266.45,266.45,0,0,0,19.32,22.07,94.15,94.15,0,0,0,11.32,9.88c2.94,2.09,5.69.89,8.68-.36,2.2-.92,4.37-1.95,6.48-3.08s3.95-2.24,5.84-3.48l.21.27s16-9.5,24-16.75,23.84-22.25,23.84-22.25V94.15Z"/><path class="cls-2" d="M165.93,231v29.21q-9-9.26-17.48-18.93c1.05-.48,2.07-1,3-1.43A77.68,77.68,0,0,0,165.93,231Z"/><path class="cls-3" d="M124.5,91.7c1-.13,2-.27,2.93-.42-2.75,8.62-6.48,17.43-14.81,21.84a16,16,0,0,1-13.25,1.15,13.91,13.91,0,0,1-1.68-.75,24.06,24.06,0,0,1-8.42-8q3.45-2.65,6.82-5.43a13.81,13.81,0,0,0,1.29,1.8c.67.81,1.83-.35,1.15-1.16a13.27,13.27,0,0,1-1.2-1.69c.39-.51-.09-1.17-.68-1.22h0c-.34-.69-.65-1.4-.94-2.12-.87-2.16-1.55-4.43-2.54-6.54h.44a26,26,0,0,0,17.07-6.47,92.2,92.2,0,0,0,6,12.51.82.82,0,0,0,1.42-.82c-.4-.68-.78-1.38-1.16-2.07a5.85,5.85,0,0,0,1.73.22A40.63,40.63,0,0,0,124.5,91.7Z"/><path class="cls-4" d="M117.92,42.77c.34,1.07.48,3.26-1.88,6.48-.36-1.13-.61-1.81-.64-1.89l-1.87-5c.31-.62,1.14-1.91,2.48-1.56A2.87,2.87,0,0,1,117.92,42.77Z"/><path class="cls-3" d="M117.23,63C118.08,71.3,113.12,81.9,102,86a23.86,23.86,0,0,1-8.8,1.53A22.45,22.45,0,0,1,75.37,78.5a68.75,68.75,0,0,1-7.25-13.59l-.74-2,0-.09c0-.09-.07-.19-.1-.28a56.1,56.1,0,0,1-1.92-15.71,3.57,3.57,0,0,1,.36-1.54c.81-1.17.62-2.86.15-4.39,2.16,1.63,4.1,2.41,5.8,2.3,2.1-.13,6-1.55,10.44-3.19,6.72-2.46,15.1-5.52,19.29-4.79a23,23,0,0,1,9.1,3.55l1.34,3.59h0a.77.77,0,0,0,.18.48h0l1.87,5.06A68.21,68.21,0,0,1,117.23,63Zm-9.15.52a.84.84,0,0,0,.13-1.16.81.81,0,0,0-1.15-.12c-10.6,8.5-25,9.32-25.14,9.32a.82.82,0,0,0,0,1.64h0l.87-.06a12.7,12.7,0,0,0,6,6.31,11.27,11.27,0,0,0,4.78,1,16.72,16.72,0,0,0,5.79-1.15c6.91-2.57,8.37-7.56,8.41-11.2v0a14.36,14.36,0,0,0-.52-4Zm-2.9-18.77a.82.82,0,0,0-.38-1.1,6.45,6.45,0,0,0-4.62-.3,5.39,5.39,0,0,0-3.06,3.16.81.81,0,0,0,.43,1.07.77.77,0,0,0,.32.07.82.82,0,0,0,.76-.5,3.82,3.82,0,0,1,2.11-2.26,4.85,4.85,0,0,1,3.35.24A.81.81,0,0,0,105.18,44.71ZM94.28,63.58c.43-1-1-1.79-1.42-.83a1.72,1.72,0,0,1-2.6.72,2.07,2.07,0,0,1-.12-2.91c.74-.76-.42-1.92-1.16-1.17a3.72,3.72,0,0,0,.28,5.37A3.36,3.36,0,0,0,94.28,63.58ZM80.22,54a.81.81,0,0,0-.37-1.1,5.44,5.44,0,0,0-4.38-.4,6.42,6.42,0,0,0-3.3,3.25.81.81,0,0,0,.43,1.07.71.71,0,0,0,.32.07.8.8,0,0,0,.75-.49A4.85,4.85,0,0,1,76.05,54a3.9,3.9,0,0,1,3.08.33A.81.81,0,0,0,80.22,54Z"/><path class="cls-5" d="M109.46,31.35c.55,2.25,1.05,4.28,1.41,5.72-.39-.25-.83-.51-1.33-.78a25.9,25.9,0,0,0-7.89-2.66c-4.62-.81-12.87,2.2-20.14,4.86-4.17,1.53-8.11,3-10,3.1s-4.46-1.4-7.39-4.38l-4.68-4.75,3.39,5.75c.87,1.46,2.36,4.89,1.49,6.16a5.35,5.35,0,0,0-.62,2.34,37.49,37.49,0,0,0,.23,7c.19,1.73.44,3.46.72,5-.22-.06-.43-.11-.66-.15l-.13,0a83.19,83.19,0,0,0-9.06-11.1,20.19,20.19,0,0,1-5.8-13c-.26-3.8.55-7.38,2.28-9.74l.1-.14,0-.16c0-.18,4.11-17.24,21.06-21.58a37.55,37.55,0,0,1,9.23-1.21,28.88,28.88,0,0,1,15,4,26.13,26.13,0,0,1,3.41,2.44c.34.29.67.59,1,.88a15,15,0,0,1,4.42,6.53C106.36,18.73,108.08,25.76,109.46,31.35Z"/><path class="cls-6" d="M108.21,62.32a.84.84,0,0,1-.13,1.16l-.71.54a14.36,14.36,0,0,1,.52,4v0c0,3.64-1.5,8.63-8.41,11.2a16.72,16.72,0,0,1-5.79,1.15,11.27,11.27,0,0,1-4.78-1,12.7,12.7,0,0,1-6-6.31l-.87.06h0a.82.82,0,0,1,0-1.64c.14,0,14.54-.82,25.14-9.32A.81.81,0,0,1,108.21,62.32Zm-1.95,5.29a13,13,0,0,0-.31-2.55c-7.94,5.48-17,7.27-21.37,7.84A11.79,11.79,0,0,0,86,75.11C88.19,74.73,98.37,72.71,106.26,67.61ZM98.91,77.75c5.07-1.89,6.78-5.24,7.23-8.13a61.68,61.68,0,0,1-18.75,6.9C89.66,78.43,93.31,79.82,98.91,77.75Z"/><path class="cls-3" d="M106,65.06a13,13,0,0,1,.31,2.55c-7.89,5.1-18.07,7.12-20.25,7.5a11.79,11.79,0,0,1-1.43-2.21C88.94,72.33,98,70.54,106,65.06Z"/><path class="cls-4" d="M106.14,69.62c-.45,2.89-2.16,6.24-7.23,8.13-5.6,2.07-9.25.68-11.52-1.23A61.68,61.68,0,0,0,106.14,69.62Z"/><path class="cls-4" d="M66.58,65.48c0,.08.29.77.77,1.88-3.94-.89-5.27-2.66-5.72-3.7a2.87,2.87,0,0,1,.15-2.75A1.64,1.64,0,0,1,63,60.17a3.56,3.56,0,0,1,1.71.33l1.47,4Z"/><path class="cls-7" d="M67.77,209.25c-2.34-.27-3.65-2.52-4.86-4.45-.68-1.08-1.41-2.14-2.19-3.15,1.23-1.22,2.42-2.47,3.6-3.74C65.56,201.74,66.65,205.6,67.77,209.25Z"/><path class="cls-3" d="M63.84,196.47a.71.71,0,0,0-.65.25q-1.72,1.84-3.5,3.65l-1.18,1.16Q56,204,53.41,206.27c-3.32,2.91-9.6,9.92-13.56,4.55a45.71,45.71,0,0,1-4.65-8.07,124.3,124.3,0,0,1-5.94-17c-5.17-17.54-8.67-35.55-12.16-53.49a.86.86,0,0,0,.39-1.14c-.34-.72-.69-1.44-1-2.17v0a.72.72,0,0,0-.19-.38Q11.92,119.39,8,110.06c-1.06-2.48-2.39-5.18-3.56-8C2.25,96.92.68,91.42,2.45,86.35a26.1,26.1,0,0,1,5.76-9.3c3.58-3.57,8-1.94,10.32,2.14,1.9,3.3,3,7.17,4.33,10.72q2.2,5.78,4.39,11.56a.84.84,0,0,0,1.21.49c1.32-1,2.76-2.29,4.23-3.4a14.09,14.09,0,0,1,2.69-1.66c4.28-1.89,3.43,1.72,2.54,3.54A32.66,32.66,0,0,1,36,103.72c-2.47,3.84-5.29,7.45-6.4,12a18,18,0,0,0-1.88,6c-.13,2.18.78,4.32,1.4,6.39l.12.38q2.64,9.28,5.77,18.41c3.6,10.45,7.69,20.73,12.13,30.86L41.5,189.6c-.45,1,1,1.78,1.42.83Q45.46,185,48,179.68c.3-.66.61-1.31.92-2,.49-1,1-2,1.45-3.06C57.29,180,61,188.09,63.84,196.47Z"/><path class="cls-6" d="M97.55,47.54a.77.77,0,0,0,.32.07.82.82,0,0,0,.76-.5,3.82,3.82,0,0,1,2.11-2.26,4.85,4.85,0,0,1,3.35.24.81.81,0,0,0,1.09-.38.82.82,0,0,0-.38-1.1,6.45,6.45,0,0,0-4.62-.3,5.39,5.39,0,0,0-3.06,3.16A.81.81,0,0,0,97.55,47.54Z"/><path class="cls-6" d="M94.28,63.58c.43-1-1-1.79-1.42-.83a1.72,1.72,0,0,1-2.6.72,2.07,2.07,0,0,1-.12-2.91c.74-.76-.42-1.92-1.16-1.17a3.72,3.72,0,0,0,.28,5.37A3.36,3.36,0,0,0,94.28,63.58Z"/><path class="cls-6" d="M79.85,52.88a5.44,5.44,0,0,0-4.38-.4,6.42,6.42,0,0,0-3.3,3.25.81.81,0,0,0,.43,1.07.71.71,0,0,0,.32.07.8.8,0,0,0,.75-.49A4.85,4.85,0,0,1,76.05,54a3.9,3.9,0,0,1,3.08.33A.81.81,0,0,0,80.22,54,.81.81,0,0,0,79.85,52.88Z"/><path class="cls-8" d="M186.48,149.77c-13.25-19.5-10.63-27.5-10.63-27.5,1.75-25.5-4.1-32.55-4.1-32.55l-5.82,3s-40.17,30.06-47.82,65,6,23.51,20.77,36.62c12.42,11,17.1,22.46,27.05,25.81a32.84,32.84,0,0,0,12.21.28s1.85.59,6.21-3.87S206.6,199.27,206.66,195,199.73,169.27,186.48,149.77Z"/><path class="cls-6" d="M208.19,194.4a.79.79,0,0,0-1.12.12c-10.37,12.75-30.45,27.43-41.14,34.74v-.32c-1.63,1.3-3.33,2.53-5.07,3.71-1,.67-1.72,1.09-2,1.2a.94.94,0,0,0-.34.26c-1.4.88-2.82,1.72-4.27,2.5-2.11,1.13-4.28,2.16-6.48,3.08-3,1.25-5.74,2.45-8.68.36a94.15,94.15,0,0,1-11.32-9.88A266.45,266.45,0,0,1,108.5,208.1c-6.92-8.57-13.82-17.18-21.61-25q1.27-2.15,2.54-4.31A.82.82,0,0,0,88,178Q79.1,193.29,69.07,207.9c-3.79-12.38-7.27-26.7-18-34.75-.44-.33-.89-.66-1.35-1s-.64-.42-1-.61h0q9.1-24.77,17.23-49.87a1,1,0,0,0,.21-.09q11.25-7,21.79-15.08c2.9,4,6.59,7.39,10.85,9.09a16.31,16.31,0,0,0,12.89-.28c10.05-4.29,14.36-14.51,17.49-24.34q5.67-.89,11.3-2.11c2.71-.59,5.4-1.4,8.14-1.81,3-.45,6,.14,9,.58l8.26,1.23v0c3.52.53,11.12,1.6,13.89,2h.11a.8.8,0,0,0,.11-1.59c-6.15-.87-11.63-1.65-14.11-2h0l-1-.15-.34-.06h-.08l-4.81-.72c-4.28-.63-8.42-1.48-12.73-.58-4.84,1-9.61,2.22-14.48,3.08l-2.7.45c-.6.1-1.2.2-1.8.28-.88.15-1.77.27-2.66.4s-8,1.72-8.49.38a.84.84,0,0,0-1.18-.48q-2.06-4.06-3.7-8.33a24,24,0,0,0,6.92-18.73,70.49,70.49,0,0,0-2.24-11.6c3.56-4.31,3.33-7.43,2.87-8.91a4.54,4.54,0,0,0-3.06-3.09,3.31,3.31,0,0,0-3.16.79L113,38.91c-.05-.18-4.46-18.06-5.83-23.76-.73-3-4-7.5-9.56-10.88A30.63,30.63,0,0,0,81.74,0,38.7,38.7,0,0,0,72.1,1.27C55.13,5.61,50.38,22,49.89,23.89c-1.87,2.63-2.73,6.54-2.45,10.68a21.83,21.83,0,0,0,6.25,14.07A77,77,0,0,1,62,58.73,3.17,3.17,0,0,0,60.43,60a4.55,4.55,0,0,0-.3,4.34c.61,1.43,2.48,4,8,4.88A70.28,70.28,0,0,0,74,79.43a24,24,0,0,0,17.25,9.65,69.28,69.28,0,0,1,3,7.22c.31.8.65,1.6,1,2.37q-3.41,2.82-6.91,5.52l-1.3,1q-10,7.66-20.75,14.42a.85.85,0,0,0-1.45.28Q56.46,146,47,171.73a.71.71,0,0,0,.55,1,1,1,0,0,0,.2.15c.45.27.89.55,1.31.84l-1,2.05C44,166.43,40.27,157,36.93,147.39q-2.82-8.13-5.25-16.39c-.33-1.14-.7-2.28-1.05-3.42s-.75-2.49-1-3.74c-.57-2.45.3-4.72,1.25-6.94a.7.7,0,0,0,.24-.42l.09-.34c.09-.21.17-.41.26-.61a.66.66,0,0,0,0-.47,35,35,0,0,1,4.78-8.74c1.6-2.38,3.86-5.21,4.12-8.18.19-2.18-1.09-4.07-3.46-3.72a8.56,8.56,0,0,0-3.54,1.91l-1.5,1.11q-1.73,1.25-3.45,2.52L23.11,86c-1.3-3.42-2.37-7.46-5-10.14a7.44,7.44,0,0,0-7.82-2.13C7.13,74.85,5.08,78.11,3.4,80.8,1.24,84.26-.28,88,0,92.17a34.68,34.68,0,0,0,3,10.39l1,2.3Q9.14,117.33,14.9,129.5C19.08,151,22.84,173,30.08,193.7A101.3,101.3,0,0,0,34,203.33c.56,1.23,1.16,2.44,1.79,3.64,1.47,2.83,3.26,7.14,6.9,7.58,4,.49,7.72-3.52,10.44-5.84q3.31-2.82,6.42-5.86c1.24,1.76,2.32,3.59,3.66,5.29a6.24,6.24,0,0,0,5.56,2.75.86.86,0,0,0,.76-.7h0Q78.16,197.64,86,184.56c15,15.11,26.59,33.24,41.93,48,3.43,3.3,7.2,7.24,11.4,9.58,2.38,1.32,5,.79,7.58-.21a1.07,1.07,0,0,0,.16.27q9.15,10.44,18.85,20.35v-2.34q-9-9.26-17.48-18.93c1.05-.48,2.07-1,3-1.43a78.1,78.1,0,0,0,11.6-6.75l2.22-1.49c3-2,7.79-5.35,13.29-9.46,9.37-7,22.14-17.3,29.74-26.64A.8.8,0,0,0,208.19,194.4ZM116,40.77a2.87,2.87,0,0,1,1.91,2c.34,1.07.48,3.26-1.88,6.48-.36-1.13-.61-1.81-.64-1.89l-1.87-5C113.84,41.71,114.67,40.42,116,40.77ZM54.83,47.46a20.19,20.19,0,0,1-5.8-13c-.26-3.8.55-7.38,2.28-9.74l.1-.14,0-.16c0-.18,4.11-17.24,21.06-21.58a37.55,37.55,0,0,1,9.23-1.21,28.88,28.88,0,0,1,15,4,26.13,26.13,0,0,1,3.41,2.44c.34.29.67.59,1,.88a15,15,0,0,1,4.42,6.53c.78,3.2,2.5,10.23,3.88,15.82.55,2.25,1.05,4.28,1.41,5.72-.39-.25-.83-.51-1.33-.78a25.9,25.9,0,0,0-7.89-2.66c-4.62-.81-12.87,2.2-20.14,4.86-4.17,1.53-8.11,3-10,3.09s-4.46-1.39-7.39-4.37l-4.68-4.75,3.39,5.75c.87,1.46,2.36,4.89,1.49,6.16a5.35,5.35,0,0,0-.62,2.34,37.49,37.49,0,0,0,.23,7c.19,1.73.44,3.46.72,5-.22-.06-.43-.11-.66-.15l-.13,0A83.19,83.19,0,0,0,54.83,47.46Zm6.8,16.2a2.87,2.87,0,0,1,.15-2.75A1.64,1.64,0,0,1,63,60.17a3.56,3.56,0,0,1,1.71.33l1.47,4,.38,1c0,.08.29.77.77,1.88C63.41,66.47,62.08,64.7,61.63,63.66ZM75.37,78.5a68.75,68.75,0,0,1-7.25-13.59l-.74-2,0-.1c0-.09-.07-.19-.1-.28a56.1,56.1,0,0,1-1.92-15.71,3.57,3.57,0,0,1,.36-1.54c.81-1.17.62-2.86.15-4.39,2.16,1.63,4.1,2.41,5.8,2.3,2.1-.13,6-1.55,10.44-3.19,6.72-2.46,15.1-5.52,19.29-4.79a23,23,0,0,1,9.1,3.55l1.34,3.59h0a.77.77,0,0,0,.18.48h0l1.87,5a68.21,68.21,0,0,1,3.37,15C118.08,71.3,113.12,81.9,102,86a23.86,23.86,0,0,1-8.8,1.53A22.45,22.45,0,0,1,75.37,78.5Zm20.72,21.62a13.81,13.81,0,0,0,1.29,1.8c.67.81,1.83-.35,1.15-1.16a13.27,13.27,0,0,1-1.2-1.69l-.69-1.22c-.34-.69-.65-1.4-.94-2.12-.87-2.16-1.55-4.43-2.54-6.54h.44a26,26,0,0,0,17.07-6.47,92.2,92.2,0,0,0,6,12.51.82.82,0,0,0,1.42-.82c-.4-.68-.78-1.38-1.16-2.07a5.85,5.85,0,0,0,1.73.22,40.63,40.63,0,0,0,5.82-.87c1-.13,2-.27,2.93-.42-2.75,8.62-6.48,17.43-14.81,21.84a16,16,0,0,1-13.25,1.15,13.91,13.91,0,0,1-1.68-.75,24.06,24.06,0,0,1-8.42-8Q92.72,102.9,96.09,100.12ZM58.51,201.53Q56,204,53.41,206.27c-3.32,2.91-9.6,9.92-13.56,4.55a45.71,45.71,0,0,1-4.65-8.07,124.3,124.3,0,0,1-5.94-17c-5.17-17.54-8.67-35.55-12.16-53.49a.86.86,0,0,0,.39-1.14c-.34-.72-.69-1.44-1-2.17v0a.72.72,0,0,0-.19-.38Q11.92,119.39,8,110.06c-1.06-2.48-2.39-5.18-3.56-8C2.25,96.92.68,91.42,2.45,86.35a26.1,26.1,0,0,1,5.76-9.3c3.58-3.57,8-1.94,10.32,2.14,1.9,3.3,3,7.17,4.33,10.72q2.2,5.78,4.39,11.56a.84.84,0,0,0,1.21.49c1.32-1,2.76-2.29,4.23-3.4a14.09,14.09,0,0,1,2.69-1.66c4.28-1.89,3.43,1.72,2.54,3.54A32.66,32.66,0,0,1,36,103.72c-2.47,3.84-5.29,7.45-6.4,12a18,18,0,0,0-1.88,6c-.13,2.18.78,4.32,1.4,6.39l.12.38q2.64,9.28,5.77,18.41c3.6,10.45,7.69,20.73,12.13,30.86L41.5,189.6c-.45,1,1,1.78,1.42.83Q45.46,185,48,179.68c.3-.66.61-1.31.92-2,.49-1,1-2,1.45-3.06C57.29,180,61,188.09,63.84,196.47a.71.71,0,0,0-.65.25q-1.72,1.84-3.5,3.65Zm4.4,3.27c-.68-1.08-1.41-2.14-2.19-3.15,1.23-1.22,2.42-2.47,3.6-3.74,1.24,3.83,2.33,7.69,3.45,11.34C65.43,209,64.12,206.73,62.91,204.8Z"/></g></g></svg>