<svg xmlns="http://www.w3.org/2000/svg" viewBox="0 0 22.86 37.55"><defs><style>.cls-1{fill:#6d6d6d;}</style></defs><title>Asset 8</title><g id="Layer_2" data-name="Layer 2"><g id="Layer_1-2" data-name="Layer 1"><path class="cls-1" d="M11.43,37.55A11.45,11.45,0,0,1,0,26.11V11.43a11.43,11.43,0,0,1,22.86,0V26.11A11.45,11.45,0,0,1,11.43,37.55Zm0-35.45A9.33,9.33,0,0,0,2.1,11.43V26.11a9.34,9.34,0,1,0,18.67,0V11.43A9.34,9.34,0,0,0,11.43,2.1Z"/><path class="cls-1" d="M11.43,14.89A1.47,1.47,0,0,1,10,13.42V8.32a1.47,1.47,0,1,1,2.94,0v5.1A1.47,1.47,0,0,1,11.43,14.89Z"/></g></g></svg>