<svg xmlns="http://www.w3.org/2000/svg" viewBox="0 0 151.5 112.37"><defs><style>.cls-1{fill:#e0e0e0;fill-rule:evenodd;}</style></defs><title>Asset 12</title><g id="Layer_2" data-name="Layer 2"><g id="Layer_1-2" data-name="Layer 1"><path class="cls-1" d="M101.45,65.3h25.28c2.15,26-7.89,39.1-7.89,39.1l8.93,8c24.89-12.45,23.72-47.07,23.72-47.07v-50A15.26,15.26,0,0,0,136.23,0H101.45A15.26,15.26,0,0,0,86.19,15.26V50A15.26,15.26,0,0,0,101.45,65.3Z"/><path class="cls-1" d="M15.26,65.3H40.54c2.15,26-7.89,39.1-7.89,39.1l8.93,8C66.47,99.92,65.3,65.3,65.3,65.3v-50A15.26,15.26,0,0,0,50,0H15.26A15.26,15.26,0,0,0,0,15.26V50A15.26,15.26,0,0,0,15.26,65.3Z"/></g></g></svg>